<svg id="Duotone" xmlns="http://www.w3.org/2000/svg" viewBox="0 0 100 112"><defs><style>.cls-1{fill:#f0f2ff;}.cls-2{fill:none;}.cls-2,.cls-3,.cls-4{stroke:#4550e5;stroke-linecap:round;stroke-linejoin:round;}.cls-3,.cls-5{fill:#d6daff;}.cls-4,.cls-6{fill:#fff;}.cls-7{fill:#4550e5;}</style></defs><title>04- spa-meditation-female-african-american-1</title><g id="Icons"><g id="Background"><g id="New_Symbol_90-60" data-name="New Symbol 90"><path class="cls-1" d="M90.5,56.05a40,40,0,1,0-76.44,16.5H86.94A39.85,39.85,0,0,0,90.5,56.05Z"/><line class="cls-2" x1="11" y1="72.55" x2="89" y2="72.55"/><line class="cls-2" x1="6.5" y1="72.55" x2="9" y2="72.55"/><line class="cls-2" x1="91" y1="72.55" x2="93.5" y2="72.55"/></g></g><g id="Scene"><path class="cls-3" d="M18.35,57.8a1.73,1.73,0,1,0,3.36.8c.3-1.26-1.62-1.47-1.57-3.33A3.62,3.62,0,0,0,18.35,57.8Z"/><path class="cls-4" d="M18.72,62.2h2.6a1,1,0,0,1,1,1v9.35a0,0,0,0,1,0,0h-4.6a0,0,0,0,1,0,0V63.2A1,1,0,0,1,18.72,62.2Z"/><path class="cls-4" d="M21,67.95h2.6a1,1,0,0,1,1,1v3.6a0,0,0,0,1,0,0H20a0,0,0,0,1,0,0v-3.6A1,1,0,0,1,21,67.95Z"/><path class="cls-3" d="M24,63.52a1.73,1.73,0,1,1-3.36.8c-.3-1.26,1.62-1.47,1.57-3.33A3.64,3.64,0,0,1,24,63.52Z"/><line class="cls-2" x1="26.92" y1="64.5" x2="26.92" y2="63.35"/><path class="cls-3" d="M32.1,66.8a5.86,5.86,0,0,1-5.18,3.45,5.85,5.85,0,0,1-5.17-3.45s2.63-2.3,5.17-2.3S32.1,66.8,32.1,66.8Z"/><line class="cls-2" x1="32.1" y1="66.8" x2="21.75" y2="66.8"/><line class="cls-2" x1="23.47" y1="72.55" x2="24.67" y2="69.76"/><line class="cls-2" x1="30.37" y1="72.55" x2="29.18" y2="69.76"/><path class="cls-2" d="M25.77,59.9a1.72,1.72,0,0,0-1.72-1.73,1.73,1.73,0,1,1,0-3.45"/><path class="cls-2" d="M30.37,62.2a1.15,1.15,0,1,1,0-2.3,1.73,1.73,0,1,0,0-3.45"/><path class="cls-4" d="M75.07,56.45h2.6a1,1,0,0,1,1,1V61a0,0,0,0,1,0,0h-4.6a0,0,0,0,1,0,0v-3.6A1,1,0,0,1,75.07,56.45Z"/><path class="cls-3" d="M78,52a1.73,1.73,0,0,1-3.36.8c-.3-1.26,1.62-1.47,1.57-3.33A3.64,3.64,0,0,1,78,52Z"/><ellipse class="cls-5" cx="76.37" cy="70.25" rx="6.9" ry="2.3"/><ellipse class="cls-5" cx="76.37" cy="63.35" rx="5.18" ry="2.3"/><ellipse class="cls-3" cx="75.8" cy="66.8" rx="4.02" ry="1.15"/><ellipse class="cls-2" cx="76.37" cy="70.25" rx="6.9" ry="2.3"/><ellipse class="cls-2" cx="76.37" cy="63.35" rx="5.18" ry="2.3"/><path class="cls-4" d="M79.41,90.15a1.16,1.16,0,0,1-.84,1.95H22.42a1.15,1.15,0,0,1-1.05-.7,1.17,1.17,0,0,1,.22-1.25L31.47,79.8a1.14,1.14,0,0,1,.83-.35H68.7a1.14,1.14,0,0,1,.83.35Z"/><path class="cls-4" d="M34.63,81.75a2.07,2.07,0,1,1,0-4.14h2.76a1.38,1.38,0,0,0,1.38-1.38V70.71a11.69,11.69,0,0,1,4.14-8.94V76.23a5.52,5.52,0,0,1-5.52,5.52Z"/><path class="cls-4" d="M66.37,81.75a2.07,2.07,0,0,0,0-4.14H63.61a1.38,1.38,0,0,1-1.38-1.38V70.71a11.69,11.69,0,0,0-4.14-8.94V76.23a5.52,5.52,0,0,0,5.52,5.52Z"/><path class="cls-6" d="M58.09,85.73v-24a11.75,11.75,0,0,0-15.18,0v24Z"/><path class="cls-4" d="M49.12,65.88h2.76a2.77,2.77,0,0,0,2.76-2.76V59.74a11.66,11.66,0,0,0-8.28,0v3.38A2.76,2.76,0,0,0,49.12,65.88Z"/><path class="cls-2" d="M58.09,85.73v-24a11.75,11.75,0,0,0-15.18,0v24Z"/><ellipse class="cls-1" cx="50.5" cy="89.22" rx="14.95" ry="1.73"/><path class="cls-5" d="M38.37,81.76a3.45,3.45,0,1,0-.58,6.87l10.9.37,1.44-5.76Z"/><path class="cls-2" d="M38.37,81.76a3.45,3.45,0,1,0-.58,6.87l10.9.37,1.44-5.76Z"/><path class="cls-4" d="M50.19,83.5l2.07-.26L53.7,89l-2.92.1a2.81,2.81,0,0,1-3-2.57h0A2.81,2.81,0,0,1,50.19,83.5Z"/><path class="cls-5" d="M64,81.76a3.45,3.45,0,1,1,.58,6.87L53.7,89l-1.44-5.76Z"/><path class="cls-2" d="M64,81.76a3.45,3.45,0,1,1,.58,6.87L53.7,89l-1.44-5.76Z"/><path class="cls-6" d="M60.51,47.73c.66-.39.72-1.5.14-2.49a2.73,2.73,0,0,0-1-1,1.15,1.15,0,0,0,.86-.53c.37-.67-.15-1.65-1.16-2.2a2.32,2.32,0,0,0-1.85-.23l-.3-.35A1.24,1.24,0,0,0,58,40c.13-.75-.68-1.52-1.8-1.71a2.27,2.27,0,0,0-2,.45h0a1.13,1.13,0,0,0,.41-.82c0-.76-.93-1.38-2.07-1.38s-2.07.62-2.07,1.38c0-.76-.93-1.38-2.07-1.38s-2.07.62-2.07,1.38a1.13,1.13,0,0,0,.41.82h0a2.27,2.27,0,0,0-2-.45c-1.13.19-1.94,1-1.81,1.71a1.23,1.23,0,0,0,.87.89l-.31.35a2.32,2.32,0,0,0-1.85.23c-1,.55-1.53,1.53-1.16,2.2a1.15,1.15,0,0,0,.87.53,2.6,2.6,0,0,0-1,1c-.58,1-.52,2.1.13,2.49a1.09,1.09,0,0,0,.8.09,2.22,2.22,0,0,0-.5,2.06c.22,1.13,1,1.92,1.75,1.77a.79.79,0,0,0,.3-.12,8.95,8.95,0,0,0,15.34,0,.86.86,0,0,0,.3.12c.75.15,1.53-.64,1.75-1.77a2.22,2.22,0,0,0-.5-2.06A1.09,1.09,0,0,0,60.51,47.73Z"/><path class="cls-2" d="M60.51,47.73c.66-.39.72-1.5.14-2.49a2.73,2.73,0,0,0-1-1,1.15,1.15,0,0,0,.86-.53c.37-.67-.15-1.65-1.16-2.2a2.32,2.32,0,0,0-1.85-.23l-.3-.35A1.24,1.24,0,0,0,58,40c.13-.75-.68-1.52-1.8-1.71a2.27,2.27,0,0,0-2,.45h0a1.13,1.13,0,0,0,.41-.82c0-.76-.93-1.38-2.07-1.38s-2.07.62-2.07,1.38c0-.76-.93-1.38-2.07-1.38s-2.07.62-2.07,1.38a1.13,1.13,0,0,0,.41.82h0a2.27,2.27,0,0,0-2-.45c-1.13.19-1.94,1-1.81,1.71a1.23,1.23,0,0,0,.87.89l-.31.35a2.32,2.32,0,0,0-1.85.23c-1,.55-1.53,1.53-1.16,2.2a1.15,1.15,0,0,0,.87.53,2.6,2.6,0,0,0-1,1c-.58,1-.52,2.1.13,2.49a1.09,1.09,0,0,0,.8.09,2.22,2.22,0,0,0-.5,2.06c.22,1.13,1,1.92,1.75,1.77a.79.79,0,0,0,.3-.12,8.95,8.95,0,0,0,15.34,0,.86.86,0,0,0,.3.12c.75.15,1.53-.64,1.75-1.77a2.22,2.22,0,0,0-.5-2.06A1.09,1.09,0,0,0,60.51,47.73Z"/><path class="cls-4" d="M54.06,61.23c0-1.15.61-2.07,1.38-2.07s1.38.92,1.38,2.07-.62,2.07-1.38,2.07S54.06,62.37,54.06,61.23Z"/><path class="cls-4" d="M54.06,58.47c0-1.15.61-2.07,1.38-2.07s1.38.92,1.38,2.07-.62,2.06-1.38,2.06S54.06,59.61,54.06,58.47Z"/><path class="cls-4" d="M54.06,55.71c0-1.15.61-2.08,1.38-2.08s1.38.93,1.38,2.08-.62,2.07-1.38,2.07S54.06,56.85,54.06,55.71Z"/><path class="cls-4" d="M57.51,65.37c0,.8-1,2.17-1.63,2.92a.58.58,0,0,1-.89,0c-.61-.75-1.62-2.12-1.62-2.92a2.07,2.07,0,1,1,4.14,0Z"/><path class="cls-4" d="M46.93,61.23c0-1.15-.62-2.07-1.38-2.07s-1.38.92-1.38,2.07.61,2.07,1.38,2.07S46.93,62.37,46.93,61.23Z"/><path class="cls-4" d="M46.93,58.47c0-1.15-.62-2.07-1.38-2.07s-1.38.92-1.38,2.07.61,2.06,1.38,2.06S46.93,59.61,46.93,58.47Z"/><path class="cls-4" d="M46.93,55.71c0-1.15-.62-2.08-1.38-2.08s-1.38.93-1.38,2.08.61,2.07,1.38,2.07S46.93,56.85,46.93,55.71Z"/><path class="cls-4" d="M43.48,65.37c0,.8,1,2.17,1.62,2.92a.58.58,0,0,0,.89,0c.61-.75,1.63-2.12,1.63-2.92a2.07,2.07,0,1,0-4.14,0Z"/><path class="cls-4" d="M57.38,48.4l-1-3.49A1.38,1.38,0,0,0,54.77,44a15.93,15.93,0,0,1-4.28.82A16,16,0,0,1,46.21,44a1.38,1.38,0,0,0-1.64.91l-1,3.49a1.4,1.4,0,0,0,.14,2.78,6.89,6.89,0,0,0,13.5,0,1.4,1.4,0,0,0,.14-2.78Z"/><circle class="cls-5" cx="46.75" cy="50.64" r="0.86"/><circle class="cls-5" cx="54.23" cy="50.64" r="0.86"/><path class="cls-2" d="M52.22,52.65a2.86,2.86,0,0,1-3.45,0"/><path class="cls-7" d="M47.9,47.48a.86.86,0,1,0,.87.86.86.86,0,0,0-.87-.86Z"/><path class="cls-7" d="M53.08,47.48a.86.86,0,0,0,0,1.72.86.86,0,1,0,0-1.72Z"/></g></g></svg>