<svg id="Multicolor" xmlns="http://www.w3.org/2000/svg" viewBox="0 0 100 112"><defs><style>.cls-1,.cls-8{fill:#e8f4fa;}.cls-2{fill:#fff;}.cls-17,.cls-3{fill:none;}.cls-10,.cls-11,.cls-12,.cls-16,.cls-17,.cls-3,.cls-8,.cls-9{stroke:#191816;}.cls-10,.cls-11,.cls-12,.cls-16,.cls-3,.cls-8,.cls-9{stroke-linecap:round;stroke-linejoin:round;}.cls-4{fill:#00b8f0;}.cls-5{fill:#4acfff;}.cls-6{fill:#c0dceb;}.cls-7{fill:#adc4d9;}.cls-9{fill:#f0f0f0;}.cls-10{fill:#00f5bc;}.cls-11{fill:#00ad85;}.cls-12{fill:#00dba8;}.cls-13{fill:#191816;opacity:0.15;}.cls-14{fill:#ffe500;}.cls-15{fill:#fff48c;}.cls-16{fill:#ff6242;}.cls-17{stroke-miterlimit:10;}</style></defs><title>30- 3d-model-imac</title><g id="Background"><g id="New_Symbol_28-16" data-name="New Symbol 28"><path class="cls-1" d="M90.5,56.5A40,40,0,1,0,14.06,73H86.94A39.85,39.85,0,0,0,90.5,56.5Z"/><path class="cls-2" d="M14.06,73a40,40,0,0,0,72.88,0Z"/><line class="cls-3" x1="11" y1="73" x2="89" y2="73"/><line class="cls-3" x1="6.5" y1="73" x2="9" y2="73"/><line class="cls-3" x1="91" y1="73" x2="93.5" y2="73"/></g></g><g id="Scene"><rect class="cls-4" x="18.84" y="31.07" width="46.22" height="35.01" rx="3" ry="3"/><path class="cls-5" d="M42.09,31.07H22.34a3.5,3.5,0,0,0-3.5,3.5V54.32Z"/><rect class="cls-6" x="38.45" y="66.08" width="7" height="4.2"/><rect class="cls-7" x="38.45" y="66.08" width="7" height="2.1"/><rect class="cls-3" x="38.45" y="66.08" width="7" height="4.2"/><path class="cls-8" d="M51.05,73.08H32.84a2.8,2.8,0,0,1,2.81-2.8h12.6A2.8,2.8,0,0,1,51.05,73.08Z"/><rect class="cls-3" x="18.84" y="31.07" width="46.22" height="35.01" rx="3" ry="3"/><path class="cls-9" d="M61.55,66.08a3.51,3.51,0,0,0,3.51-3.5v-2.1H18.84v2.1a3.5,3.5,0,0,0,3.5,3.5Z"/><polygon class="cls-10" points="32.84 40.74 41.95 44.88 51.05 40.74 41.95 36.6 32.84 40.74"/><polygon class="cls-11" points="41.95 44.88 41.95 55.64 51.05 51.5 51.05 40.74 41.95 44.88"/><polygon class="cls-12" points="32.84 40.74 32.84 51.5 41.95 55.64 41.95 44.88 32.84 40.74"/><path class="cls-13" d="M67.26,84.58c0,.61-2.47,1.1-5.51,1.1s-5.5-.49-5.5-1.1,2.47-1.1,5.5-1.1S67.26,84,67.26,84.58Z"/><path class="cls-13" d="M80.46,84.58c0,.61-2.46,1.1-5.5,1.1s-5.5-.49-5.5-1.1,2.46-1.1,5.5-1.1S80.46,84,80.46,84.58Z"/><rect class="cls-4" x="69.46" y="70.28" width="11" height="11" rx="1" ry="1"/><path class="cls-5" d="M70.46,70.28h9a1,1,0,0,1,1,1v1.1a0,0,0,0,1,0,0h-11a0,0,0,0,1,0,0v-1.1A1,1,0,0,1,70.46,70.28Z"/><rect class="cls-3" x="69.46" y="70.28" width="11" height="11" rx="1" ry="1"/><path class="cls-14" d="M66.16,76.33a5,5,0,1,1-5-5A5,5,0,0,1,66.16,76.33Z"/><path class="cls-15" d="M61.2,74.13a4.94,4.94,0,0,1,4.74,3.58,4.86,4.86,0,0,0,.22-1.38,5,5,0,0,0-9.91,0,4.86,4.86,0,0,0,.22,1.38A4.94,4.94,0,0,1,61.2,74.13Z"/><path class="cls-3" d="M66.16,76.33a5,5,0,1,1-5-5A5,5,0,0,1,66.16,76.33Z"/><path class="cls-3" d="M66.16,76.33a5,5,0,1,1-5-5A5,5,0,0,1,66.16,76.33Z"/><path class="cls-16" d="M70.86,65.38a1.18,1.18,0,0,1-1-.59,1.14,1.14,0,0,1,0-1.17l4.09-7A1.16,1.16,0,0,1,75,56a1.18,1.18,0,0,1,1,.58l4.09,7a1.17,1.17,0,0,1-1,1.76Z"/><circle class="cls-17" cx="41.95" cy="63.28" r="0.58"/></g></svg>