<svg id="Duotone" xmlns="http://www.w3.org/2000/svg" xmlns:xlink="http://www.w3.org/1999/xlink" viewBox="0 0 100 112"><defs><style>.cls-1,.cls-3{fill:none;}.cls-2{fill:#f0f2ff;}.cls-10,.cls-3,.cls-4,.cls-5{stroke:#4550e5;stroke-linejoin:round;}.cls-10,.cls-3,.cls-5{stroke-linecap:round;}.cls-4,.cls-5,.cls-9{fill:#fff;}.cls-10,.cls-6{fill:#d6daff;}.cls-7{clip-path:url(#clip-path);}.cls-8{fill:#4550e5;}</style><clipPath id="clip-path"><circle class="cls-1" cx="50.5" cy="56" r="40"/></clipPath></defs><title>21- working-desk-out-of-idea-panic-male-caucasian</title><g id="Icons"><g id="Background"><g id="New_Symbol_56-12" data-name="New Symbol 56"><path class="cls-2" d="M90.5,56A40,40,0,1,0,14.06,72.5H86.94A39.85,39.85,0,0,0,90.5,56Z"/><line class="cls-3" x1="11.5" y1="72.5" x2="89.5" y2="72.5"/><line class="cls-3" x1="7" y1="72.5" x2="9.5" y2="72.5"/><line class="cls-3" x1="91.5" y1="72.5" x2="94" y2="72.5"/></g></g><g id="Scene"><ellipse class="cls-2" cx="69.75" cy="87" rx="4.25" ry="1.5"/><path class="cls-4" d="M88,16.88a3.38,3.38,0,0,0-3.38-3.38H55.88a3.38,3.38,0,0,0-3.38,3.38V35.15a3.35,3.35,0,0,0,3.38,3.35h7.61v5.1a1.4,1.4,0,0,0,.86,1.29,1.42,1.42,0,0,0,1.54-.3l6-6.09H84.62A3.35,3.35,0,0,0,88,35.15Z"/><line class="cls-3" x1="24.72" y1="30.32" x2="24.72" y2="29.5"/><line class="cls-3" x1="26.46" y1="31.04" x2="27.04" y2="30.46"/><line class="cls-3" x1="27.18" y1="32.78" x2="28" y2="32.78"/><line class="cls-3" x1="26.46" y1="34.52" x2="27.04" y2="35.1"/><line class="cls-3" x1="24.72" y1="35.24" x2="24.72" y2="36.06"/><line class="cls-3" x1="22.98" y1="34.52" x2="22.4" y2="35.1"/><line class="cls-3" x1="22.26" y1="32.78" x2="21.44" y2="32.78"/><line class="cls-3" x1="22.98" y1="31.04" x2="22.4" y2="30.46"/><line class="cls-3" x1="44.72" y1="30.43" x2="44.72" y2="26"/><line class="cls-3" x1="42.5" y1="28.22" x2="46.93" y2="28.22"/><line class="cls-3" x1="60.44" y1="50.88" x2="60.44" y2="48"/><line class="cls-3" x1="59" y1="49.44" x2="61.88" y2="49.44"/><circle class="cls-5" cx="70" cy="25.5" r="8"/><path class="cls-6" d="M66.36,25.79a.73.73,0,1,1-.72-.73A.73.73,0,0,1,66.36,25.79Z"/><path class="cls-6" d="M75.09,25.79a.73.73,0,1,1-.73-.73A.73.73,0,0,1,75.09,25.79Z"/><line class="cls-3" x1="65.5" y1="23" x2="68.5" y2="23"/><line class="cls-3" x1="67" y1="21.5" x2="67" y2="24.5"/><line class="cls-3" x1="71.5" y1="23" x2="74.5" y2="23"/><line class="cls-3" x1="73" y1="21.5" x2="73" y2="24.5"/><path class="cls-3" d="M67,29.5l.38-.76a1,1,0,0,1,.73-.54,1,1,0,0,1,.87.28l.31.31a1,1,0,0,0,1.42,0l.31-.31a1,1,0,0,1,.87-.28,1,1,0,0,1,.73.54l.38.76"/><g class="cls-7"><path class="cls-5" d="M51.47,40.21l-1.9,3.52a2.53,2.53,0,0,1-1.18,4.77H34.61a2.55,2.55,0,0,1-2.36-1.62,2.52,2.52,0,0,1,1.19-3.15l-1.91-3.52A6.53,6.53,0,0,0,34.61,52.5H35V67H48V52.5h.39a6.59,6.59,0,0,0,6.1-4.18A6.52,6.52,0,0,0,51.47,40.21Z"/><path class="cls-8" d="M39.25,42a.75.75,0,1,0,.75.75.76.76,0,0,0-.75-.75Z"/><path class="cls-8" d="M43.75,42a.75.75,0,1,0,.75.75.76.76,0,0,0-.75-.75Z"/><path class="cls-3" d="M48,40.48a6.5,6.5,0,1,0-13,0v2a5.15,5.15,0,0,0,3.5-3C41.3,41.36,45,41,48,40.48Z"/><path class="cls-3" d="M37.5,38.48a3.32,3.32,0,0,0,1,1"/><path class="cls-3" d="M43,47a2.69,2.69,0,0,0-3,0"/><path class="cls-3" d="M38.5,44.39a2.67,2.67,0,0,0,.75.11,2.61,2.61,0,0,0,.75-.11"/><path class="cls-3" d="M44.5,44.39a2.61,2.61,0,0,1-.75.11,2.67,2.67,0,0,1-.75-.11"/><line class="cls-3" x1="16" y1="66" x2="26" y2="66"/><path class="cls-9" d="M30.5,47h-19a2,2,0,0,0-2,2v2.5a2,2,0,0,1,2-2h19a2,2,0,0,1,2,2V49A2,2,0,0,0,30.5,47Z"/><rect class="cls-3" x="9.5" y="47" width="23" height="16" rx="2" ry="2"/><line class="cls-3" x1="12.5" y1="49" x2="29.5" y2="49"/><line class="cls-3" x1="12.5" y1="59" x2="12.5" y2="60"/><line class="cls-3" x1="14.5" y1="59" x2="14.5" y2="60"/><line class="cls-3" x1="16.5" y1="59" x2="16.5" y2="60"/><path class="cls-3" d="M11.5,68H61a0,0,0,0,1,0,0V83.5a1,1,0,0,1-1,1H12.5a1,1,0,0,1-1-1V68a0,0,0,0,1,0,0Z"/><rect class="cls-3" x="15" y="68" width="42.5" height="16.5"/><rect class="cls-3" x="17.5" y="70.5" width="37.5" height="11.5" rx="2" ry="2"/><path class="cls-10" d="M41.5,52.77l-2.21,7.71a2,2,0,0,0,.39,1.83L41.12,64a.5.5,0,0,0,.77,0l1.43-1.73a2,2,0,0,0,.39-1.83Z"/><path class="cls-5" d="M38.26,53.64l3.24-.87L38.82,48.5H37v4.18A1,1,0,0,0,38.26,53.64Z"/><path class="cls-5" d="M44.74,53.64l-3.24-.87,2.69-4.27H46v4.18A1,1,0,0,1,44.74,53.64Z"/><path class="cls-5" d="M48.5,44a1.23,1.23,0,0,0-1-1.2V42a6,6,0,1,0-12,0v.8a1.22,1.22,0,0,0,.13,2.42,6,6,0,0,0,11.75,0A1.23,1.23,0,0,0,48.5,44Z"/><path class="cls-8" d="M39.25,42a.75.75,0,1,0,.75.75.76.76,0,0,0-.75-.75Z"/><path class="cls-8" d="M43.75,42a.75.75,0,1,0,.75.75.76.76,0,0,0-.75-.75Z"/><circle class="cls-6" cx="38.25" cy="44.73" r="0.75"/><circle class="cls-6" cx="44.75" cy="44.73" r="0.75"/><path class="cls-9" d="M48,40.48a6.5,6.5,0,1,0-13,0v2a5.15,5.15,0,0,0,3.5-3C41.3,41.36,45,41,48,40.48Z"/><path class="cls-3" d="M48,40.48a6.5,6.5,0,1,0-13,0v2a5.15,5.15,0,0,0,3.5-3C41.3,41.36,45,41,48,40.48Z"/><path class="cls-3" d="M37.5,38.48a3.32,3.32,0,0,0,1,1"/><path class="cls-3" d="M43,47a2.69,2.69,0,0,0-3,0"/><path class="cls-5" d="M36,42.23a2,2,0,0,0-2-3.46l-2.46,1.44,1.91,3.52Z"/><path class="cls-5" d="M47,42.23a2,2,0,0,1,1-3.73,2,2,0,0,1,1,.27l2.46,1.44-1.9,3.52Z"/><path class="cls-3" d="M38.5,44.39a2.67,2.67,0,0,0,.75.11,2.61,2.61,0,0,0,.75-.11"/><path class="cls-3" d="M44.5,44.39a2.61,2.61,0,0,1-.75.11,2.67,2.67,0,0,1-.75-.11"/><path class="cls-5" d="M62,65a1,1,0,0,1-1,1H52a1,1,0,0,1,0-2h9A1,1,0,0,1,62,65Z"/><path class="cls-5" d="M60.5,63a1,1,0,0,1-1,1h-9a1,1,0,0,1,0-2h9A1,1,0,0,1,60.5,63Z"/><ellipse class="cls-2" cx="35.5" cy="85" rx="28" ry="1.5"/><line class="cls-3" x1="16" y1="66" x2="26" y2="66"/><rect class="cls-9" x="9.5" y="47" width="23" height="16" rx="2" ry="2"/><rect class="cls-3" x="9.5" y="47" width="23" height="16" rx="2" ry="2"/><line class="cls-3" x1="12.5" y1="49" x2="29.5" y2="49"/><path class="cls-5" d="M24.5,66h-7l.85-10.17a2,2,0,0,1,2-1.83h1.32a2,2,0,0,1,2,1.83Z"/><line class="cls-3" x1="12.5" y1="59" x2="12.5" y2="60"/><line class="cls-3" x1="14.5" y1="59" x2="14.5" y2="60"/><line class="cls-3" x1="16.5" y1="59" x2="16.5" y2="60"/><path class="cls-9" d="M11.5,68H61a0,0,0,0,1,0,0V83.5a1,1,0,0,1-1,1H12.5a1,1,0,0,1-1-1V68a0,0,0,0,1,0,0Z"/><path class="cls-3" d="M11.5,68H61a0,0,0,0,1,0,0V83.5a1,1,0,0,1-1,1H12.5a1,1,0,0,1-1-1V68a0,0,0,0,1,0,0Z"/><path class="cls-10" d="M61,66H11.5a1,1,0,0,0-1,1h0a1,1,0,0,0,1,1H61a1,1,0,0,0,1-1h0A1,1,0,0,0,61,66Z"/><rect class="cls-9" x="15" y="68" width="42.5" height="16.5"/><rect class="cls-3" x="15" y="68" width="42.5" height="16.5"/><rect class="cls-6" x="17.5" y="70.5" width="37.5" height="11.5" rx="2" ry="2"/><rect class="cls-3" x="17.5" y="70.5" width="37.5" height="11.5" rx="2" ry="2"/></g></g></g></svg>