<svg id="Multicolor" xmlns="http://www.w3.org/2000/svg" viewBox="0 0 178 178"><defs><style>.cls-1{fill:#e8f4fa;}.cls-11,.cls-2{fill:#191816;}.cls-2{opacity:0.15;}.cls-17,.cls-3{fill:#ffe500;}.cls-12,.cls-13,.cls-14,.cls-15,.cls-16,.cls-23,.cls-3,.cls-4,.cls-7{stroke:#191816;stroke-linecap:round;stroke-linejoin:round;}.cls-4{fill:#9ceb60;}.cls-5{fill:#e0e0e0;}.cls-6{fill:#f0f0f0;}.cls-7{fill:none;}.cls-8{fill:#bdbec0;}.cls-16,.cls-9{fill:#00b8f0;}.cls-10{fill:#4acfff;}.cls-12{fill:#fff5e3;}.cls-13,.cls-21{fill:#ff6242;}.cls-14{fill:#ff8a14;}.cls-15{fill:#6dd627;}.cls-18{fill:#656769;}.cls-19{fill:#87898c;}.cls-20{fill:#fff48c;}.cls-22{fill:#ff866e;}.cls-23{fill:#fff;}</style></defs><title>98- desktop-work-desk-write</title><g id="Background"><g id="New_Symbol_36-16" data-name="New Symbol 36"><circle class="cls-1" cx="89" cy="88.71" r="81"/></g></g><g id="Scene"><path class="cls-2" d="M34.15,116.6,32,110.17a1.66,1.66,0,0,1,1-2.06l14.76-5.66,7.79-1.09a1.66,1.66,0,0,1,1.8,1.12l1.72,5.23a1.64,1.64,0,0,1-.77,2l-6.91,3.76-15.23,4.23A1.64,1.64,0,0,1,34.15,116.6Z"/><path class="cls-2" d="M113.46,117.31l-2.31-9.65a1.66,1.66,0,0,0-2-1.22L69,116.07a1.67,1.67,0,0,0-1.23,2l-1.6.38a1.67,1.67,0,0,0-1.23,2l1.93,8a1.65,1.65,0,0,0,2,1.22l1.61-.38,3.86,16.08a1.65,1.65,0,0,0,2,1.22L116.48,137a1.65,1.65,0,0,0,1.22-2l-1.54-6.43,1.6-.39a1.65,1.65,0,0,0,1.23-2l-1.93-8a1.66,1.66,0,0,0-2-1.23Z"/><path class="cls-2" d="M54.92,82.68a1.65,1.65,0,0,0-.74-2.22L42.36,74.52a1.65,1.65,0,0,0-2.22.73l-.37.74H31.54a1.65,1.65,0,0,0-1.65,1.66V90.88a1.65,1.65,0,0,0,1.65,1.65h9.84l5.37,2.7A1.67,1.67,0,0,0,49,94.5Z"/><rect class="cls-3" x="30.71" y="75.17" width="14.88" height="14.88" rx="1.65" ry="1.65"/><rect class="cls-4" x="36.5" y="75.17" width="14.88" height="14.88" rx="1.65" ry="1.65" transform="translate(-49.54 86.66) rotate(-64.47)"/><path class="cls-2" d="M133.44,114.28,131,121a6.23,6.23,0,0,0,11.72,4.21l2.41-6.7a6.23,6.23,0,0,0-11.72-4.21Z"/><path class="cls-2" d="M108,102H70a5,5,0,0,1-5-5V85.49h48V97.06A5,5,0,0,1,108,102Z"/><path class="cls-2" d="M132.82,62.33c0-1.41-11.76-2.62-28.31-3.09l0-.21h-31l0,.21c-16.55.47-28.31,1.68-28.31,3.09s11.42,2.59,27.59,3.08l-.26,2.2a7,7,0,0,0,6.91,7.78H98.58a7,7,0,0,0,6.91-7.78l-.26-2.2C121.4,64.92,132.82,63.73,132.82,62.33Z"/><path class="cls-5" d="M108.85,97.89H69.16a3.31,3.31,0,0,1-3.31-3.31V79.7A1.66,1.66,0,0,1,67.5,78h43a1.66,1.66,0,0,1,1.65,1.66V94.58A3.31,3.31,0,0,1,108.85,97.89Z"/><path class="cls-6" d="M110.5,78h-43a1.66,1.66,0,0,0-1.65,1.66v5a3.31,3.31,0,0,1,3.31-3.31h39.69a3.31,3.31,0,0,1,3.3,3.31v-5A1.66,1.66,0,0,0,110.5,78Z"/><path class="cls-7" d="M108.85,97.89H69.16a3.31,3.31,0,0,1-3.31-3.31V79.7A1.66,1.66,0,0,1,67.5,78h43a1.66,1.66,0,0,1,1.65,1.66V94.58A3.31,3.31,0,0,1,108.85,97.89Z"/><line class="cls-7" x1="70.81" y1="92.93" x2="74.12" y2="92.93"/><line class="cls-7" x1="70.81" y1="87.97" x2="74.12" y2="87.97"/><line class="cls-7" x1="70.81" y1="83.01" x2="74.12" y2="83.01"/><line class="cls-7" x1="77.42" y1="87.97" x2="80.73" y2="87.97"/><line class="cls-7" x1="77.42" y1="83.01" x2="80.73" y2="83.01"/><line class="cls-7" x1="84.04" y1="87.97" x2="87.35" y2="87.97"/><line class="cls-7" x1="84.04" y1="83.01" x2="87.35" y2="83.01"/><line class="cls-7" x1="90.65" y1="87.97" x2="93.96" y2="87.97"/><line class="cls-7" x1="90.65" y1="83.01" x2="93.96" y2="83.01"/><line class="cls-7" x1="97.27" y1="87.97" x2="100.58" y2="87.97"/><line class="cls-7" x1="97.27" y1="83.01" x2="100.58" y2="83.01"/><line class="cls-7" x1="103.88" y1="92.93" x2="107.19" y2="92.93"/><line class="cls-7" x1="103.88" y1="87.97" x2="107.19" y2="87.97"/><line class="cls-7" x1="103.88" y1="83.01" x2="107.19" y2="83.01"/><line class="cls-7" x1="77.42" y1="92.93" x2="100.58" y2="92.93"/><path class="cls-5" d="M150.13,30.09H27.87a5.86,5.86,0,0,0-5.32,8.31h132.9A5.86,5.86,0,0,0,150.13,30.09Z"/><path class="cls-7" d="M150.13,30.09H27.87a5.86,5.86,0,0,0-5.32,8.31h132.9A5.86,5.86,0,0,0,150.13,30.09Z"/><path class="cls-5" d="M96.35,43.32H81.65a6.62,6.62,0,0,0-6.57,5.84L73.33,64a6.62,6.62,0,0,0,6.57,7.39H98.1A6.62,6.62,0,0,0,104.67,64l-1.75-14.88A6.62,6.62,0,0,0,96.35,43.32Z"/><path class="cls-8" d="M104.47,62.33l-1.55-13.17a6.62,6.62,0,0,0-6.57-5.84H81.65a6.62,6.62,0,0,0-6.57,5.84L73.53,62.33Z"/><path class="cls-7" d="M96.35,43.32H81.65a6.62,6.62,0,0,0-6.57,5.84L73.33,64a6.62,6.62,0,0,0,6.57,7.39H98.1A6.62,6.62,0,0,0,104.67,64l-1.75-14.88A6.62,6.62,0,0,0,96.35,43.32Z"/><path class="cls-9" d="M152.62,33.39H25.38a3.31,3.31,0,0,0-2.83,5L33,55.79a5,5,0,0,0,4.26,2.41H140.76A5,5,0,0,0,145,55.79L155.45,38.4A3.31,3.31,0,0,0,152.62,33.39Z"/><path class="cls-10" d="M37.24,58.2H64.19L89,33.39H25.38a3.31,3.31,0,0,0-2.83,5L33,55.79A5,5,0,0,0,37.24,58.2Z"/><path class="cls-7" d="M152.62,33.39H25.38a3.31,3.31,0,0,0-2.83,5L33,55.79a5,5,0,0,0,4.26,2.41H140.76A5,5,0,0,0,145,55.79L155.45,38.4A3.31,3.31,0,0,0,152.62,33.39Z"/><path class="cls-5" d="M31.45,53.24,33,55.79a5,5,0,0,0,4.26,2.41H140.76A5,5,0,0,0,145,55.79l1.53-2.55Z"/><path class="cls-7" d="M31.45,53.24,33,55.79a5,5,0,0,0,4.26,2.41H140.76A5,5,0,0,0,145,55.79l1.53-2.55Z"/><path class="cls-5" d="M140.32,109.37a5.78,5.78,0,0,0-7.4,3.49l-2.24,6.23a5.79,5.79,0,0,0,10.9,3.91l2.23-6.23A5.79,5.79,0,0,0,140.32,109.37Z"/><path class="cls-6" d="M140.32,109.37a5.78,5.78,0,0,0-7.4,3.49l-1.4,3.89a5.79,5.79,0,1,1,10.89,3.92l1.4-3.9A5.79,5.79,0,0,0,140.32,109.37Z"/><path class="cls-7" d="M140.32,109.37a5.78,5.78,0,0,0-7.4,3.49l-2.24,6.23a5.79,5.79,0,0,0,10.9,3.91l2.23-6.23A5.79,5.79,0,0,0,140.32,109.37Z"/><path class="cls-11" d="M138.64,113.21a.81.81,0,0,0-.77.55.82.82,0,0,0,.49,1.06,1,1,0,0,0,.28.05.83.83,0,0,0,.28-1.61.87.87,0,0,0-.28-.05Z"/><path class="cls-2" d="M116.34,150l.93,2.3a1.65,1.65,0,0,1-.91,2.15l-19.52,7.89a.83.83,0,0,1-1.08-.45l-.05-.14-1.17.47a3.3,3.3,0,0,1-2.05,2.59c-1.24.49-3.77-.41-5-.93a.82.82,0,0,1-.44-1.11c.59-1.25,1.83-3.63,3.07-4.12a3.31,3.31,0,0,1,3.25.49l1.15-.45-.26-.64a.83.83,0,0,1,.46-1.07l19.52-7.89A1.64,1.64,0,0,1,116.34,150Z"/><rect class="cls-12" x="70.22" y="112.48" width="19.85" height="29.77" rx="1.65" ry="1.65" transform="translate(-27.48 22.19) rotate(-13.48)"/><rect class="cls-12" x="92.73" y="107.08" width="19.85" height="29.77" rx="1.65" ry="1.65" transform="translate(-25.6 27.28) rotate(-13.48)"/><line class="cls-7" x1="85.48" y1="114.18" x2="91.91" y2="112.63"/><line class="cls-7" x1="86.25" y1="117.39" x2="92.68" y2="115.85"/><line class="cls-7" x1="87.02" y1="120.61" x2="93.46" y2="119.07"/><line class="cls-7" x1="87.79" y1="123.83" x2="94.23" y2="122.28"/><line class="cls-7" x1="88.56" y1="127.04" x2="95" y2="125.5"/><line class="cls-7" x1="89.34" y1="130.26" x2="95.77" y2="128.72"/><line class="cls-7" x1="90.11" y1="133.47" x2="96.54" y2="131.93"/><line class="cls-7" x1="90.88" y1="136.69" x2="97.31" y2="135.15"/><path class="cls-13" d="M68.56,121.63l-3.22.77-.77-3.21a1.67,1.67,0,0,1,1.23-2l1.6-.38Z"/><path class="cls-14" d="M69.72,126.46l-1.61.38a1.66,1.66,0,0,1-1.25-.2,1.64,1.64,0,0,1-.74-1l-.78-3.22,3.22-.77Z"/><path class="cls-15" d="M115.9,120.49l-3.21.77-1.16-4.82,1.61-.39a1.65,1.65,0,0,1,2,1.22Z"/><path class="cls-16" d="M116.67,123.71a1.64,1.64,0,0,1-1.22,2l-1.61.38-1.15-4.82,3.21-.77Z"/><path class="cls-7" d="M78,118.52a.83.83,0,0,1-.61,1l-4.83,1.16a.83.83,0,0,1-1-.61l-.38-1.61a.83.83,0,0,1,.1-.63.84.84,0,0,1,.51-.37l4.83-1.15a.76.76,0,0,1,.62.1.78.78,0,0,1,.37.51Z"/><rect class="cls-7" x="77.1" y="132.09" width="9.92" height="6.61" rx="1.65" ry="1.65" transform="translate(-29.3 22.86) rotate(-13.48)"/><line class="cls-7" x1="75.76" y1="123.31" x2="83.81" y2="121.38"/><line class="cls-7" x1="73.32" y1="127.29" x2="84.58" y2="124.6"/><line class="cls-7" x1="74.09" y1="130.51" x2="85.35" y2="127.81"/><path class="cls-7" d="M100.73,113.92a3.31,3.31,0,1,0,2.44-4A3.3,3.3,0,0,0,100.73,113.92Z"/><path class="cls-7" d="M99.76,131.16a3.31,3.31,0,1,0,2.44-4A3.3,3.3,0,0,0,99.76,131.16Z"/><polyline class="cls-7" points="100.72 113.92 99.12 114.31 102.2 127.17"/><line class="cls-7" x1="101.04" y1="122.35" x2="104.26" y2="121.58"/><path class="cls-7" d="M109.28,121.23a.85.85,0,0,1-.1.62.83.83,0,0,1-.51.37l-3.22.77a.83.83,0,0,1-1-.61l-.38-1.61a.82.82,0,0,1,.61-1l3.22-.77a.81.81,0,0,1,1,.61Z"/><path class="cls-17" d="M51.19,111.28l-2.8-9.43-14.13,5a1.66,1.66,0,0,0-1,2l1.44,4.83a1.65,1.65,0,0,0,2,1.13Z"/><path class="cls-18" d="M58.26,106l-1.08-3.66a1.65,1.65,0,0,0-1.74-1.17l-7,.64,2.8,9.43L57.45,108A1.64,1.64,0,0,0,58.26,106Z"/><path class="cls-19" d="M57.73,104.25l-.55-1.87a1.66,1.66,0,0,0-1.74-1.17l-7,.64,1.42,4.76Z"/><path class="cls-20" d="M49.81,106.61l-1.42-4.76-14.13,5a1.66,1.66,0,0,0-1,2l.73,2.46Z"/><path class="cls-7" d="M51.19,111.28l-2.8-9.43-14.13,5a1.66,1.66,0,0,0-1,2l1.44,4.83a1.65,1.65,0,0,0,2,1.13Z"/><path class="cls-7" d="M58.26,106l-1.08-3.66a1.65,1.65,0,0,0-1.74-1.17l-7,.64,2.8,9.43L57.45,108A1.64,1.64,0,0,0,58.26,106Z"/><line class="cls-7" x1="37.12" y1="110.38" x2="43.47" y2="108.49"/><rect class="cls-21" x="92.67" y="151.91" width="23.15" height="4.96" rx="1.65" ry="1.65" transform="translate(-48.9 48.32) rotate(-21.26)"/><path class="cls-22" d="M93.46,158.59l21.58-8.4-.3-.77a1.65,1.65,0,0,0-2.14-.94l-18.5,7.2a1.65,1.65,0,0,0-.94,2.14Z"/><line class="cls-7" x1="106.43" y1="150.88" x2="108.23" y2="155.51"/><path class="cls-7" d="M112.6,148.48a3.31,3.31,0,0,0-4.28-1.88l-6.17,2.4"/><path class="cls-18" d="M92.05,161.8a2.48,2.48,0,1,0-1.8-4.62c-1.28.5-3,3.81-3,3.81S90.77,162.3,92.05,161.8Z"/><path class="cls-19" d="M87.3,161s1.67-3.31,3-3.81a2.47,2.47,0,0,1,3.21,1.41Z"/><path class="cls-7" d="M92.05,161.8a2.48,2.48,0,1,0-1.8-4.62c-1.28.5-3,3.81-3,3.81S90.77,162.3,92.05,161.8Z"/><rect class="cls-7" x="92.67" y="151.91" width="23.15" height="4.96" rx="1.65" ry="1.65" transform="translate(-48.9 48.32) rotate(-21.26)"/><rect class="cls-2" x="124.68" y="79.19" width="26.83" height="15.78" rx="1.58" ry="1.58" transform="translate(1.22 176.06) rotate(-65.26)"/><rect class="cls-23" x="130.25" y="72.78" width="13.89" height="23.81" rx="1" ry="1" transform="translate(48.03 -49.64) rotate(24.74)"/><rect class="cls-9" x="130.25" y="76.75" width="13.89" height="15.88" transform="translate(48.03 -49.64) rotate(24.74)"/><polygon class="cls-10" points="128.81 86.29 145.93 79.97 134.21 74.58 128.81 86.29"/><rect class="cls-7" x="130.25" y="76.75" width="13.89" height="15.88" transform="translate(48.03 -49.64) rotate(24.74)"/></g></svg>