<svg xmlns="http://www.w3.org/2000/svg" viewBox="0 0 100 112">
  <g fill="none" fill-rule="evenodd" transform="translate(1 .002)">
    <path fill="#E8F4FA" fill-rule="nonzero" d="M83.5000164,39.9976204 C83.4984701,23.6622311 73.5640168,8.96912775 58.4050828,2.88211951 C43.2461489,-3.20488874 25.9090288,0.537425256 14.6106656,12.3353885 C3.31230241,24.1333518 0.323181775,41.6160806 7.06,56.4976204 L79.94,56.4976204 C82.2912625,51.3149272 83.5051574,45.6887291 83.5000164,39.9976204 Z"/>
    <path fill="#FFF" fill-rule="nonzero" d="M7.06,56.4976204 C13.5380618,70.8075703 27.7920418,80.0013663 43.5,80.0013663 C59.2079582,80.0013663 73.4619382,70.8075703 79.94,56.4976204 L7.06,56.4976204 Z"/>
    <line x1="4.5" x2="82.5" y1="56.498" y2="56.498" stroke="#4F4A45" stroke-linecap="round" stroke-linejoin="round"/>
    <line x2="2.5" y1="56.498" y2="56.498" stroke="#4F4A45" stroke-linecap="round" stroke-linejoin="round"/>
    <line x1="84.5" x2="87" y1="56.498" y2="56.498" stroke="#4F4A45" stroke-linecap="round" stroke-linejoin="round"/>
    <g transform="translate(4 6.078)">
      <path fill="#A6FBFF" fill-rule="nonzero" stroke="#191816" stroke-linecap="round" stroke-linejoin="round" d="M13,13.42 L10,13.42 L10,1.92 C10,1.64385763 10.2238576,1.42 10.5,1.42 L12.5,1.42 C12.7761424,1.42 13,1.64385763 13,1.92 L13,13.42 Z"/>
      <rect width="3" height="2" x="10" y="3.42" fill="#E5FEFF" fill-rule="nonzero" stroke="#191816" stroke-linecap="round" stroke-linejoin="round"/>
      <path fill="#FFA694" fill-rule="nonzero" stroke="#191816" stroke-linecap="round" stroke-linejoin="round" d="M22,13.42 L19,13.42 L19,1.92 C19,1.64385763 19.2238576,1.42 19.5,1.42 L21.5,1.42 C21.7761424,1.42 22,1.64385763 22,1.92 L22,13.42 Z"/>
      <rect width="3" height="2" x="19" y="3.42" fill="#FFF0ED" fill-rule="nonzero" stroke="#191816" stroke-linecap="round" stroke-linejoin="round"/>
      <path fill="#C8FFA1" fill-rule="nonzero" stroke="#191816" stroke-linecap="round" stroke-linejoin="round" d="M16,13.42 L13,13.42 L13,3.92 C13,3.64385763 13.2238576,3.42 13.5,3.42 L15.5,3.42 C15.7761424,3.42 16,3.64385763 16,3.92 L16,13.42 Z"/>
      <rect width="3" height="2" x="13" y="5.42" fill="#F0FFE5" fill-rule="nonzero" stroke="#191816" stroke-linecap="round" stroke-linejoin="round"/>
      <path fill="#FFFACF" fill-rule="nonzero" stroke="#191816" stroke-linecap="round" stroke-linejoin="round" d="M19,13.42 L16,13.42 L16,2.92 C16,2.64385763 16.2238576,2.42 16.5,2.42 L18.5,2.42 C18.7761424,2.42 19,2.64385763 19,2.92 L19,13.42 Z"/>
      <rect width="3" height="2" x="16" y="4.42" fill="#FFFEF2" fill-rule="nonzero" stroke="#191816" stroke-linecap="round" stroke-linejoin="round"/>
      <path fill="#DEBB7E" fill-rule="nonzero" stroke="#191816" stroke-linecap="round" stroke-linejoin="round" d="M26,11.92 L23.79,7.92 C23.6141028,7.59851955 23.2764539,7.39899977 22.91,7.39999626 L22,7.39999626 L22,13.3999963 L26,13.3999963 L26,11.92 Z"/>
      <path fill="#947746" fill-rule="nonzero" stroke="#191816" stroke-linecap="round" stroke-linejoin="round" d="M28 1C28 1.55228475 27.5522847 2 27 2L0 2 0 0 27 0C27.5522847 0 28 .44771525 28 1zM22.62 5.01C22.544853 5.57109777 22.0661076 5.99 21.5 5.99 20.9338924 5.99 20.455147 5.57109777 20.38 5.01L20 2.01 23 2.01 22.62 5.01z" transform="translate(0 13.42)"/>
      <path fill="#FFA694" fill-rule="nonzero" d="M75,43.42 L57,43.42 L57,32.42 C57,31.3154305 57.8954305,30.42 59,30.42 L73,30.42 C74.1045695,30.42 75,31.3154305 75,32.42 L75,43.42 Z"/>
      <path fill="#FFCABF" fill-rule="nonzero" d="M73,30.42 L59,30.42 C57.8954305,30.42 57,31.3154305 57,32.42 L57,36.42 C57,35.3154305 57.8954305,34.42 59,34.42 L73,34.42 C74.1045695,34.42 75,35.3154305 75,36.42 L75,32.42 C75,31.3154305 74.1045695,30.42 73,30.42 Z"/>
      <path stroke="#191816" stroke-linecap="round" stroke-linejoin="round" d="M75,43.42 L57,43.42 L57,32.42 C57,31.3154305 57.8954305,30.42 59,30.42 L73,30.42 C74.1045695,30.42 75,31.3154305 75,32.42 L75,43.42 Z"/>
      <path fill="#BDBEC0" fill-rule="nonzero" stroke="#191816" stroke-linecap="round" stroke-linejoin="round" d="M57 48.42L61 48.42 61 49.42C61 49.9722847 60.5522847 50.42 60 50.42L58 50.42C57.4477153 50.42 57 49.9722847 57 49.42L57 48.42zM71 48.42L75 48.42 75 49.42C75 49.9722847 74.5522847 50.42 74 50.42L72 50.42C71.4477153 50.42 71 49.9722847 71 49.42L71 48.42z"/>
      <path fill="#FFA694" fill-rule="nonzero" d="M75,48.42 L57,48.42 L57,43.42 C57,42.3154305 57.8954305,41.42 59,41.42 L73,41.42 C74.1045695,41.42 75,42.3154305 75,43.42 L75,48.42 Z"/>
      <path stroke="#191816" stroke-linecap="round" stroke-linejoin="round" d="M75,48.42 L57,48.42 L57,43.42 C57,42.3154305 57.8954305,41.42 59,41.42 L73,41.42 C74.1045695,41.42 75,42.3154305 75,43.42 L75,48.42 Z"/>
      <path fill="#FFA694" fill-rule="nonzero" d="M54,48.42 L57,48.42 L57,36.42 L55,36.42 C53.8954305,36.42 53,37.3154305 53,38.42 L53,47.42 C53,47.9722847 53.4477153,48.42 54,48.42 Z"/>
      <path fill="#FFCABF" fill-rule="nonzero" d="M55,36.42 C53.8954305,36.42 53,37.3154305 53,38.42 L53,41.42 C53,40.3154305 53.8954305,39.42 55,39.42 L57,39.42 L57,36.42 L55,36.42 Z"/>
      <path stroke="#191816" stroke-linecap="round" stroke-linejoin="round" d="M54,48.42 L57,48.42 L57,36.42 L55,36.42 C53.8954305,36.42 53,37.3154305 53,38.42 L53,47.42 C53,47.9722847 53.4477153,48.42 54,48.42 Z"/>
      <path fill="#FFA694" fill-rule="nonzero" d="M78,48.42 L75,48.42 L75,36.42 L77,36.42 C78.1045695,36.42 79,37.3154305 79,38.42 L79,47.42 C79,47.9722847 78.5522847,48.42 78,48.42 Z"/>
      <path fill="#FFCABF" fill-rule="nonzero" d="M77,36.42 C78.1045695,36.42 79,37.3154305 79,38.42 L79,41.42 C79,40.3154305 78.1045695,39.42 77,39.42 L75,39.42 L75,36.42 L77,36.42 Z"/>
      <path stroke="#191816" stroke-linecap="round" stroke-linejoin="round" d="M78,48.42 L75,48.42 L75,36.42 L77,36.42 C78.1045695,36.42 79,37.3154305 79,38.42 L79,47.42 C79,47.9722847 78.5522847,48.42 78,48.42 Z"/>
      <rect width="2.3" height="5.75" x="43.99" y="53.7" fill="#ADC4D9" fill-rule="nonzero"/>
      <rect width="2.3" height="2.88" x="43.99" y="53.7" fill="#627B8C" fill-rule="nonzero"/>
      <rect width="2.3" height="5.75" x="43.99" y="53.7" stroke="#191816" stroke-linecap="round" stroke-linejoin="round"/>
      <path fill="#ADC4D9" fill-rule="nonzero" d="M58.36,49.1 C58.6702687,49.1001056 58.9674156,48.9748358 59.1839659,48.7526363 C59.4005163,48.5304368 59.518094,48.2301631 59.51,47.92 L59.51,36.45 L61.81,36.45 L61.81,47.92 C61.81,49.8253824 60.2653824,51.37 58.36,51.37 L56.06,51.37 L56.06,49.07 L58.36,49.1 Z"/>
      <rect width="2.3" height="8.05" x="59.51" y="36.45" fill="#8CA4B8" fill-rule="nonzero"/>
      <path stroke="#191816" stroke-linecap="round" stroke-linejoin="round" d="M58.36,49.1 C58.6702687,49.1001056 58.9674156,48.9748358 59.1839659,48.7526363 C59.4005163,48.5304368 59.518094,48.2301631 59.51,47.92 L59.51,36.45 L61.81,36.45 L61.81,47.92 C61.81,49.8253824 60.2653824,51.37 58.36,51.37 L56.06,51.37 L56.06,49.07 L58.36,49.1 Z"/>
      <path fill="#BF8256" fill-rule="nonzero" stroke="#191816" stroke-linecap="round" stroke-linejoin="round" d="M57.21,34.15 L60.81,34.15 C61.3622847,34.15 61.81,34.5977153 61.81,35.15 L61.81,36.45 L57.21,36.45 L57.21,34.15 Z"/>
      <path fill="#ADC4D9" fill-rule="nonzero" d="M31.91,49.1 C31.6005896,49.0973788 31.3050498,48.9712501 31.0890908,48.7496573 C30.8731317,48.5280645 30.754654,48.2293753 30.76,47.92 L30.76,36.45 L28.46,36.45 L28.46,47.92 C28.4654924,49.8231027 30.0068973,51.3645076 31.91,51.37 L34.21,51.37 L34.21,49.07 L31.91,49.1 Z"/>
      <rect width="2.3" height="8.05" x="28.46" y="36.45" fill="#8CA4B8" fill-rule="nonzero"/>
      <path stroke="#191816" stroke-linecap="round" stroke-linejoin="round" d="M31.91,49.1 C31.6005896,49.0973788 31.3050498,48.9712501 31.0890908,48.7496573 C30.8731317,48.5280645 30.754654,48.2293753 30.76,47.92 L30.76,36.45 L28.46,36.45 L28.46,47.92 C28.4654924,49.8231027 30.0068973,51.3645076 31.91,51.37 L34.21,51.37 L34.21,49.07 L31.91,49.1 Z"/>
      <path fill="#BF8256" fill-rule="nonzero" stroke="#191816" stroke-linecap="round" stroke-linejoin="round" d="M28.46,34.14 L33.06,34.14 L33.06,35.44 C33.06,35.9922847 32.6122847,36.44 32.06,36.44 L28.46,36.44 L28.46,34.14 Z" transform="rotate(180 30.76 35.29)"/>
      <path fill="#ADC4D9" fill-rule="nonzero" stroke="#191816" stroke-linecap="round" stroke-linejoin="round" d="M54.91,52.55 L35.36,52.55 C34.7271365,52.5445674 34.2154326,52.0328635 34.21,51.4 L34.21,50.25 L56.06,50.25 L56.06,51.4 C56.06,52.0351275 55.5451275,52.55 54.91,52.55 Z"/>
      <rect width="19.55" height="38.52" x="35.36" y="11.72" fill="#BF8256" fill-rule="nonzero" stroke="#191816" stroke-linecap="round" stroke-linejoin="round"/>
      <rect width="24.15" height="9.2" x="33.06" y="11.72" fill="#915E3A" fill-rule="nonzero" rx="2.3"/>
      <path fill="#BF8256" fill-rule="nonzero" d="M54.91,11.72 L35.36,11.72 C34.0897451,11.72 33.06,12.7497451 33.06,14.02 L33.06,16.92 C33.06,15.6497451 34.0897451,14.62 35.36,14.62 L54.91,14.62 C56.1802549,14.62 57.21,15.6497451 57.21,16.92 L57.21,14.02 C57.21,13.4100021 56.9676793,12.8249881 56.5363456,12.3936544 C56.1050119,11.9623207 55.5199979,11.72 54.91,11.72 Z"/>
      <rect width="24.15" height="9.2" x="33.06" y="11.72" stroke="#191816" stroke-linecap="round" stroke-linejoin="round" rx="2.3"/>
      <rect width="24.15" height="23" x="33.06" y="24.95" fill="#915E3A" fill-rule="nonzero" stroke="#191816" stroke-linecap="round" stroke-linejoin="round" rx="2.3"/>
      <path fill="#915E3A" fill-rule="nonzero" stroke="#191816" stroke-linecap="round" stroke-linejoin="round" d="M54.91,46.8 L35.36,46.8 C34.0897451,46.8 33.06,47.8297451 33.06,49.1 L33.06,49.1 C33.0654326,49.7328635 33.5771365,50.2445674 34.21,50.25 L56.06,50.25 C56.364999,50.25 56.657506,50.1288396 56.8731728,49.9131728 C57.0888396,49.697506 57.21,49.404999 57.21,49.1 L57.21,49.1 C57.21,48.4900021 56.9676793,47.9049881 56.5363456,47.4736544 C56.1050119,47.0423207 55.5199979,46.8 54.91,46.8 Z"/>
      <path fill="#8CA4B8" fill-rule="nonzero" stroke="#191816" stroke-linecap="round" stroke-linejoin="round" d="M51.46,52.55 C51.46,53.82 48.63,54.85 45.14,54.85 C41.65,54.85 38.81,53.85 38.81,52.55 L51.46,52.55 Z"/>
      <path fill="#ADC4D9" fill-rule="nonzero" stroke="#191816" stroke-linecap="round" stroke-linejoin="round" d="M52,61.17 C52,60.85 48.27,60.6 45.1,60.6 C41.93,60.6 38.2,60.85 38.2,61.17 L34.2,61.17 C34.2,59.58 39.09,58.3 45.13,58.3 C51.17,58.3 56.05,59.58 56.05,61.17 L52,61.17 Z"/>
      <circle cx="35.36" cy="61.75" r="2.3" fill="#525252" fill-rule="nonzero" stroke="#191816" stroke-linecap="round" stroke-linejoin="round"/>
      <circle cx="54.91" cy="61.75" r="2.3" fill="#525252" fill-rule="nonzero" stroke="#191816" stroke-linecap="round" stroke-linejoin="round"/>
      <ellipse cx="40.54" cy="65.2" fill="#191816" fill-rule="nonzero" opacity=".15" rx="26.45" ry="1.72"/>
      <path fill="#9CEB60" fill-rule="nonzero" stroke="#191816" stroke-linecap="round" stroke-linejoin="round" d="M12.35,38.62 C12.35,40.94 11.35,42.82 10.02,42.82 C8.69,42.82 7.68,40.92 7.68,38.62 C7.83006456,37.1197061 8.54505541,35.7326238 9.68,34.74 C9.87101288,34.5506111 10.1789871,34.5506111 10.37,34.74 C11.4975201,35.7359375 12.2051462,37.1225988 12.35,38.62 L12.35,38.62 Z"/>
      <path fill="#9CEB60" fill-rule="nonzero" stroke="#191816" stroke-linecap="round" stroke-linejoin="round" d="M10 42.82L7.13 36.13C7.04819549 35.9489326 6.8686805 35.8318576 6.67 35.8299998 6.46478597 35.8298179 6.28119665 35.9575322 6.21 36.15L5.76 37.25C5.02660897 39.0945514 5.92003681 41.1851726 7.76 41.93L10 42.82zM10 42.82L12.86 36.13C12.9452794 35.9473577 13.1284297 35.8304533 13.33 35.83 13.533447 35.83533 13.7142498 35.9611058 13.79 36.15L14.23 37.25C14.9693313 39.0946229 14.0741204 41.1894163 12.23 41.93L10 42.82z"/>
      <path fill="#DEBB7E" fill-rule="nonzero" d="M5.52999983,42.42 C5.25781238,42.4210388 4.99780884,42.5329847 4.81,42.73 C4.62960377,42.9303348 4.52984752,43.1904136 4.52999983,43.46 C4.73,49.09 6.52999983,50.46 6.52999983,50.46 L13.5299998,50.46 C13.5299998,50.46 15.31,49.13 15.5299998,43.46 C15.539602,43.1887514 15.4385335,42.9252514 15.25,42.73 C15.0621912,42.5329847 14.8021876,42.4210388 14.5299998,42.42 L5.52999983,42.42 Z"/>
      <path fill="#B89558" fill-rule="nonzero" d="M10,48.42 C7.88685781,48.3880293 5.91513896,47.3520414 4.69,45.63 C5.19,49.44 6.5,50.42 6.5,50.42 L13.5,50.42 C13.5,50.42 14.8,49.42 15.3,45.63 C14.0769377,47.3492306 12.1095973,48.3848682 10,48.42 Z"/>
      <path stroke="#191816" stroke-linecap="round" stroke-linejoin="round" d="M5.52999983,42.42 C5.25781238,42.4210388 4.99780884,42.5329847 4.81,42.73 C4.62960377,42.9303348 4.52984752,43.1904136 4.52999983,43.46 C4.73,49.09 6.52999983,50.46 6.52999983,50.46 L13.5299998,50.46 C13.5299998,50.46 15.31,49.13 15.5299998,43.46 C15.539602,43.1887514 15.4385335,42.9252514 15.25,42.73 C15.0621912,42.5329847 14.8021876,42.4210388 14.5299998,42.42 L5.52999983,42.42 Z"/>
      <path fill="#00B8F0" fill-rule="nonzero" stroke="#191816" stroke-linecap="round" stroke-linejoin="round" d="M49.16,46.8 L41.16,46.8 C39.2568973,46.7945076 37.7154924,45.2531027 37.71,43.35 L37.71,42.77 L52.71,42.77 L52.71,43.35 C52.7103918,44.2825895 52.3332158,45.1756123 51.6644231,45.8255658 C50.9956304,46.4755193 50.0921977,46.8270317 49.16,46.8 L49.16,46.8 Z"/>
      <path fill="#6DD627" fill-rule="nonzero" d="M52.61,34.15 L52.61,42.77 L37.61,42.77 L37.61,34.15 L33.61,34.15 L33.61,32.4200002 C33.61,26.0687255 38.7587255,20.9200002 45.11,20.9200002 C51.4612745,20.9200002 56.61,26.0687255 56.61,32.4200002 L56.61,34.15 L52.61,34.15 Z"/>
      <path fill="#9CEB60" fill-rule="nonzero" d="M45.14,20.92 C38.7887254,20.92 33.64,26.0687254 33.64,32.42 L33.64,34.15 L33.78,34.15 C34.6170509,28.52421 39.4472793,24.3594896 45.135,24.3594896 C50.8227207,24.3594896 55.6529491,28.52421 56.49,34.15 L56.64,34.15 L56.64,32.42 C56.64,26.0687254 51.4912746,20.92 45.14,20.92 Z"/>
      <path stroke="#191816" stroke-linecap="round" stroke-linejoin="round" d="M52.61,34.15 L52.61,42.77 L37.61,42.77 L37.61,34.15 L33.61,34.15 L33.61,32.4200002 C33.61,26.0687255 38.7587255,20.9200002 45.11,20.9200002 C51.4612745,20.9200002 56.61,26.0687255 56.61,32.4200002 L56.61,34.15 L52.61,34.15 Z"/>
      <line x1="37.66" x2="37.66" y1="30.12" y2="34.15" stroke="#191816" stroke-linecap="round" stroke-linejoin="round"/>
      <line x1="52.61" x2="52.61" y1="30.12" y2="34.15" stroke="#191816" stroke-linecap="round" stroke-linejoin="round"/>
      <path fill="#FFCEBF" fill-rule="nonzero" stroke="#191816" stroke-linecap="round" stroke-linejoin="round" d="M48.62 21.46C46.3431504 20.7339271 43.8968496 20.7339271 41.62 21.46 41.62 21.46 42.26 24.92 45.14 24.92 48.02 24.92 48.62 21.46 48.62 21.46zM37.66 37.6L36.51 37.6C35.2397451 37.6 34.21 36.5702549 34.21 35.3L34.21 34.15 37.66 34.15 37.66 37.6zM53.76 37.6L52.61 37.6 52.61 34.15 56.06 34.15 56.06 35.3C56.06 35.9099979 55.8176793 36.4950119 55.3863456 36.9263456 54.9550119 37.3576793 54.3699979 37.6 53.76 37.6z"/>
      <path fill="#00B8F0" fill-rule="nonzero" stroke="#191816" stroke-linecap="round" stroke-linejoin="round" d="M55.47,46.56 C55.5323905,45.0492598 54.415865,43.7475046 52.9132462,43.579085 C51.4106274,43.4106654 50.0336157,44.4329348 49.76,45.92 L48.21,62.47 L53.92,63.14 L55.47,46.56 Z"/>
      <path fill="#947746" fill-rule="nonzero" stroke="#191816" stroke-linecap="round" stroke-linejoin="round" d="M53.45,64.05 C53.8474754,64.0467619 54.2145657,63.8367252 54.4187715,63.4957015 C54.6229773,63.1546778 54.6348105,62.7319123 54.45,62.38 C53.8472949,61.286043 52.6989888,60.6047148 51.45,60.6 L50.88,60.6 C49.6315995,60.6068401 48.4842885,61.287578 47.88,62.38 C47.6951895,62.7319123 47.7070227,63.1546778 47.9112285,63.4957015 C48.1154343,63.8367252 48.4825246,64.0467619 48.88,64.05 L53.45,64.05 Z"/>
      <path fill="#00B8F0" fill-rule="nonzero" stroke="#191816" stroke-linecap="round" stroke-linejoin="round" d="M34.81,46.56 C34.7476095,45.0492598 35.864135,43.7475046 37.3667538,43.579085 C38.8693726,43.4106654 40.2463843,44.4329348 40.52,45.92 L42.07,62.51 L36.36,63.18 L34.81,46.56 Z"/>
      <path fill="#947746" fill-rule="nonzero" stroke="#191816" stroke-linecap="round" stroke-linejoin="round" d="M36.83,64.05 C36.4348895,64.0412109 36.0719716,63.8301528 35.8689372,63.4910855 C35.6659029,63.1520182 35.6511994,62.7324484 35.83,62.38 C36.4342885,61.287578 37.5815995,60.6068401 38.83,60.6 L39.41,60.6 C40.6584005,60.6068401 41.8057115,61.287578 42.41,62.38 C42.5888006,62.7324484 42.5740971,63.1520182 42.3710628,63.4910855 C42.1680284,63.8301528 41.8051105,64.0412109 41.41,64.05 L36.83,64.05 Z"/>
      <path fill="#FFCEBF" fill-rule="nonzero" stroke="#191816" stroke-linecap="round" stroke-linejoin="round" d="M53.19,11.72 C53.1796994,11.0325814 52.6784303,10.4512778 52,10.34 L52,9.42 C51.9999999,5.60923531 48.9107647,2.52000021 45.1,2.52000021 C41.2892353,2.52000021 38.2000001,5.60923531 38.2,9.42 L38.2,10.34 C37.5081001,10.4711373 37.019045,11.0926682 37.0543377,11.796001 C37.0896304,12.4993337 37.638448,13.0687851 38.34,13.13 C39.0065298,16.3297428 41.8265729,18.6228842 45.095,18.6228842 C48.3634271,18.6228842 51.1834702,16.3297428 51.85,13.13 C52.5989936,13.0877472 53.1859079,12.4701733 53.19,11.72 Z"/>
      <path stroke="#191816" stroke-linecap="round" stroke-linejoin="round" d="M43.41,14.65 C44.4537735,15.3490293 45.8162265,15.3490293 46.86,14.65"/>
      <circle cx="41.69" cy="11.15" r="2.3" fill="#00B8F0" fill-rule="nonzero"/>
      <path fill="#4ACFFF" fill-rule="nonzero" d="M40.06,12.77 C39.2237301,11.8627626 39.2523227,10.4572737 40.1247982,9.58479819 C40.9972737,8.71232269 42.4027626,8.68373011 43.31,9.52 L40.06,12.77 Z"/>
      <circle cx="48.59" cy="11.15" r="2.3" fill="#00B8F0" fill-rule="nonzero"/>
      <path fill="#4ACFFF" fill-rule="nonzero" d="M47,12.77 C46.1637301,11.8627626 46.1923227,10.4572737 47.0647982,9.58479819 C47.9372737,8.71232269 49.3427626,8.68373011 50.25,9.52 L47,12.77 Z"/>
      <path stroke="#191816" stroke-linecap="round" stroke-linejoin="round" d="M44,11.15 C44,10.5148725 44.5148725,10 45.15,10 C45.7851275,10 46.3,10.5148725 46.3,11.15"/>
      <circle cx="41.69" cy="11.15" r="2.3" stroke="#191816" stroke-linecap="round" stroke-linejoin="round"/>
      <circle cx="48.59" cy="11.15" r="2.3" stroke="#191816" stroke-linecap="round" stroke-linejoin="round"/>
      <path fill="#947746" fill-rule="nonzero" stroke="#191816" stroke-linecap="round" stroke-linejoin="round" d="M65.26,41.05 L15.81,41.05 C15.1847728,41.0448185 14.6761488,40.5450401 14.66,39.92 L14.66,39.92 C14.66,39.2848725 15.1748725,38.77 15.81,38.77 L65.26,38.77 C65.5658171,38.7673054 65.8598923,38.8876003 66.076146,39.103854 C66.2923997,39.3201077 66.4126946,39.6141829 66.4100443,39.92 L66.4100443,39.92 C66.3990887,40.5473034 65.8873983,41.0500949 65.26,41.05 Z"/>
      <path fill="#8CA4B8" fill-rule="nonzero" stroke="#191816" stroke-linecap="round" stroke-linejoin="round" d="M19.26,43.35 L17,43.35 C16.3671365,43.3445674 15.8554326,42.8328635 15.85,42.2 L15.85,41.05 L20.4500002,41.05 L20.4500002,42.2 C20.4501888,42.5120576 20.3235531,42.8107938 20.0991559,43.0276482 C19.8747586,43.2445027 19.5718688,43.3608542 19.26,43.35 Z"/>
      <path fill="#ADC4D9" fill-rule="nonzero" d="M19.26,62.92 C19.3458734,63.3744174 19.1511898,63.8360662 18.76585,64.0917664 C18.3805102,64.3474666 17.8794898,64.3474666 17.49415,64.0917664 C17.1088102,63.8360662 16.9141266,63.3744174 17,62.92 L17,43.35 L19.3,43.35 L19.26,62.92 Z"/>
      <rect width="2.3" height="4.02" x="16.96" y="43.35" fill="#8CA4B8" fill-rule="nonzero"/>
      <path stroke="#191816" stroke-linecap="round" stroke-linejoin="round" d="M19.26,62.92 C19.3458734,63.3744174 19.1511898,63.8360662 18.76585,64.0917664 C18.3805102,64.3474666 17.8794898,64.3474666 17.49415,64.0917664 C17.1088102,63.8360662 16.9141266,63.3744174 17,62.92 L17,43.35 L19.3,43.35 L19.26,62.92 Z"/>
      <path fill="#525252" fill-rule="nonzero" stroke="#191816" stroke-linecap="round" stroke-linejoin="round" d="M19.26,60.6 L17,60.6 L17,62.92 C17,63.5551275 17.5148725,64.07 18.15,64.07 C18.7851275,64.07 19.3,63.5551275 19.3,62.92 L19.26,60.6 Z"/>
      <path fill="#ADC4D9" fill-rule="nonzero" d="M64.11,62.92 C64.11,63.5551275 63.5951275,64.07 62.96,64.07 C62.3248725,64.07 61.81,63.5551275 61.81,62.92 L61.81,43.35 L64.11,43.35 L64.11,62.92 Z"/>
      <rect width="2.3" height="4.02" x="61.81" y="43.35" fill="#8CA4B8" fill-rule="nonzero"/>
      <path stroke="#191816" stroke-linecap="round" stroke-linejoin="round" d="M64.11,62.92 C64.11,63.5551275 63.5951275,64.07 62.96,64.07 C62.3248725,64.07 61.81,63.5551275 61.81,62.92 L61.81,43.35 L64.11,43.35 L64.11,62.92 Z"/>
      <path fill="#525252" fill-rule="nonzero" stroke="#191816" stroke-linecap="round" stroke-linejoin="round" d="M64.11,60.6 L61.81,60.6 L61.81,62.92 C61.81,63.5551275 62.3248725,64.07 62.96,64.07 C63.5951275,64.07 64.11,63.5551275 64.11,62.92 L64.11,60.6 Z"/>
      <path fill="#8CA4B8" fill-rule="nonzero" stroke="#191816" stroke-linecap="round" stroke-linejoin="round" d="M64.11,43.35 L61.81,43.35 C61.1771365,43.3445674 60.6654326,42.8328635 60.66,42.2 L60.66,41.05 L65.26,41.05 L65.26,42.2 C65.26,42.8351275 64.7451275,43.35 64.11,43.35 Z"/>
      <path fill="#FFCEBF" fill-rule="nonzero" stroke="#191816" stroke-linecap="round" stroke-linejoin="round" d="M41.11,37.02 C41.1084858,36.2066506 40.7631262,35.4318633 40.1592308,34.8870239 C39.5553354,34.3421846 38.7492168,34.0780987 37.94,34.16 C36.4489512,34.3707487 35.3451798,35.6542039 35.36,37.16 L35.36,37.57 C35.3654326,38.2028635 35.8771365,38.7145674 36.51,38.72 L40,38.72 C40.6351275,38.72 41.15,38.2051275 41.15,37.57 L41.11,37.02 Z"/>
      <rect width="26.45" height="18.4" x="13.51" y="16.9" fill="#DAEDF7" fill-rule="nonzero" rx="2.3"/>
      <path fill="#FFF" fill-rule="nonzero" d="M37.66,16.92 L15.81,16.92 C14.5397451,16.92 13.51,17.9497451 13.51,19.22 L13.51,22.09 C13.51,20.8197451 14.5397451,19.79 15.81,19.79 L37.66,19.79 C38.9302549,19.79 39.96,20.8197451 39.96,22.09 L39.96,19.2 C39.9490219,17.9375625 38.9224853,16.92 37.66,16.92 L37.66,16.92 Z"/>
      <rect width="26.45" height="18.4" x="13.51" y="16.9" stroke="#191816" stroke-linecap="round" stroke-linejoin="round" rx="2.3"/>
      <line x1="16.96" x2="36.51" y1="19.2" y2="19.2" stroke="#191816" stroke-linecap="round" stroke-linejoin="round"/>
      <path fill="#DAEDF7" fill-rule="nonzero" stroke="#191816" stroke-linecap="round" stroke-linejoin="round" d="M30.76,38.75 L22.76,38.75 L23.76,27.06 C23.8376723,25.873219 24.8109107,24.9434287 26,24.92 L27.5,24.92 C28.6957695,24.921112 29.6912195,25.838317 29.79,27.03 L30.76,38.75 Z"/>
      <line x1="16.96" x2="16.96" y1="30.7" y2="31.85" stroke="#191816" stroke-linecap="round" stroke-linejoin="round"/>
      <line x1="19.26" x2="19.26" y1="30.7" y2="31.85" stroke="#191816" stroke-linecap="round" stroke-linejoin="round"/>
      <line x1="21.56" x2="21.56" y1="30.7" y2="31.85" stroke="#191816" stroke-linecap="round" stroke-linejoin="round"/>
      <path fill="#C0DCEB" fill-rule="nonzero" stroke="#191816" stroke-linecap="round" stroke-linejoin="round" d="M63,38.75 L46.86,38.75 C46.2271365,38.7445674 45.7154326,38.2328635 45.71,37.6 L45.71,36.45 L64.1100002,36.45 L64.1100002,37.6 C64.1103751,38.2198288 63.6194539,38.7284408 63,38.75 L63,38.75 Z"/>
      <rect width="18.4" height="11.5" x="45.71" y="24.95" fill="#DAEDF7" fill-rule="nonzero" rx="1.15"/>
      <path fill="#E8F4FA" fill-rule="nonzero" d="M63,24.92 L46.86,24.92 C46.2248725,24.92 45.71,25.4348725 45.71,26.07 L45.71,28.37 C45.71,27.7348725 46.2248725,27.22 46.86,27.22 L63,27.22 C63.3058171,27.2173054 63.5998923,27.3376003 63.816146,27.553854 C64.0323997,27.7701077 64.1526946,28.0641829 64.1500443,28.37 L64.1500443,26.07 C64.1526946,25.7641829 64.0323997,25.4701077 63.816146,25.253854 C63.5998923,25.0376003 63.3058171,24.9173054 63,24.92 L63,24.92 Z"/>
      <rect width="18.4" height="11.5" x="45.71" y="24.95" stroke="#191816" stroke-linecap="round" stroke-linejoin="round" rx="1.15"/>
      <circle cx="54.91" cy="31.27" r="1.73" fill="#FFE500" fill-rule="nonzero" stroke="#191816" stroke-linecap="round" stroke-linejoin="round"/>
      <polyline stroke="#191816" stroke-linecap="round" stroke-linejoin="round" points="56.06 27.25 54.91 28.4 54.91 29.55"/>
      <path fill="#87898C" fill-rule="nonzero" d="M51.8,7.59 C51.92,7.15 52.49,6.69 52.49,6.21 C52.49,2.78 49.09,0 44.9,0 C40.71,0 37.31,2.78 37.31,6.21 C37.31,6.69 37.88,7.15 38,7.59 L51.8,7.59 Z"/>
      <path fill="#BDBEC0" fill-rule="nonzero" d="M44.9,3.55271368e-15 C40.71,3.55271368e-15 37.31,2.79 37.31,6.21 C37.3275314,6.42318934 37.4036701,6.6273796 37.53,6.8 L37.53,6.8 C38.35,4.09 41.33,2.07 44.9,2.07 C48.47,2.07 51.45,4.07 52.26,6.8 L52.26,6.8 C52.3863299,6.6273796 52.4624686,6.42318934 52.480022,6.21 C52.49,2.79 49.09,3.55271368e-15 44.9,3.55271368e-15 Z"/>
      <path stroke="#191816" stroke-linecap="round" stroke-linejoin="round" d="M49,5.55 C47.6767215,5.05485834 46.2727485,4.81068913 44.86,4.83 C43.4472515,4.81068913 42.0432785,5.05485834 40.72,5.55"/>
      <path stroke="#191816" stroke-linecap="round" stroke-linejoin="round" d="M51.8,7.59 C51.92,7.15 52.49,6.69 52.49,6.21 C52.49,2.78 49.09,0 44.9,0 C40.71,0 37.31,2.78 37.31,6.21 C37.31,6.69 37.88,7.15 38,7.59 L51.8,7.59 Z"/>
    </g>
  </g>
</svg>
