<svg id="Multicolor" xmlns="http://www.w3.org/2000/svg" xmlns:xlink="http://www.w3.org/1999/xlink" viewBox="0 0 100 112"><defs><style>.cls-1,.cls-18,.cls-4{fill:none;}.cls-2{fill:#e8f4fa;}.cls-3{fill:#fff;}.cls-4{stroke:#4f4a45;}.cls-10,.cls-11,.cls-12,.cls-13,.cls-15,.cls-18,.cls-19,.cls-23,.cls-24,.cls-27,.cls-28,.cls-29,.cls-31,.cls-34,.cls-37,.cls-4,.cls-43,.cls-44,.cls-45,.cls-5,.cls-6,.cls-7,.cls-8,.cls-9{stroke-linecap:round;stroke-linejoin:round;}.cls-5{fill:#a6fbff;}.cls-10,.cls-11,.cls-12,.cls-13,.cls-15,.cls-18,.cls-19,.cls-23,.cls-24,.cls-27,.cls-28,.cls-29,.cls-31,.cls-34,.cls-37,.cls-43,.cls-44,.cls-45,.cls-5,.cls-6,.cls-7,.cls-8,.cls-9{stroke:#191816;}.cls-6{fill:#e5feff;}.cls-16,.cls-7{fill:#ffa694;}.cls-8{fill:#fff0ed;}.cls-9{fill:#c8ffa1;}.cls-10{fill:#f0ffe5;}.cls-11{fill:#fffacf;}.cls-12{fill:#fffef2;}.cls-13,.cls-32{fill:#debb7e;}.cls-14{clip-path:url(#clip-path);}.cls-15{fill:#947746;}.cls-17{fill:#ffcabf;}.cls-19{fill:#bdbec0;}.cls-20,.cls-24{fill:#adc4d9;}.cls-21{fill:#627b8c;}.cls-22,.cls-28{fill:#8ca4b8;}.cls-23,.cls-26{fill:#bf8256;}.cls-25,.cls-27{fill:#915e3a;}.cls-29{fill:#525252;}.cls-30{fill:#191816;opacity:0.15;}.cls-31,.cls-36{fill:#9ceb60;}.cls-33{fill:#b89558;}.cls-34,.cls-38{fill:#00b8f0;}.cls-35{fill:#6dd627;}.cls-37{fill:#ffcebf;}.cls-39{fill:#4acfff;}.cls-40{fill:#614b44;}.cls-41{fill:#947063;}.cls-42,.cls-43{fill:#daedf7;}.cls-44{fill:#c0dceb;}.cls-45{fill:#ffe500;}</style><clipPath id="clip-path"><circle class="cls-1" cx="50.5" cy="56" r="40"/></clipPath></defs><title>13- working-desk-male-caucasian-4</title><g id="Background"><g id="New_Symbol_55-9" data-name="New Symbol 55"><path class="cls-2" d="M90.5,56A40,40,0,1,0,14.06,72.5H86.94A39.85,39.85,0,0,0,90.5,56Z"/><path class="cls-3" d="M14.06,72.5a40,40,0,0,0,72.88,0Z"/><line class="cls-4" x1="11.5" y1="72.5" x2="89.5" y2="72.5"/><line class="cls-4" x1="7" y1="72.5" x2="9.5" y2="72.5"/><line class="cls-4" x1="91.5" y1="72.5" x2="94" y2="72.5"/></g></g><g id="Scene"><path class="cls-5" d="M24,35.5H21V24a.5.5,0,0,1,.5-.5h2a.5.5,0,0,1,.5.5Z"/><rect class="cls-6" x="21" y="25.5" width="3" height="2"/><path class="cls-7" d="M33,35.5H30V24a.5.5,0,0,1,.5-.5h2a.5.5,0,0,1,.5.5Z"/><rect class="cls-8" x="30" y="25.5" width="3" height="2"/><path class="cls-9" d="M27,35.5H24V26a.5.5,0,0,1,.5-.5h2a.5.5,0,0,1,.5.5Z"/><rect class="cls-10" x="24" y="27.5" width="3" height="2"/><path class="cls-11" d="M30,35.5H27V25a.5.5,0,0,1,.5-.5h2a.5.5,0,0,1,.5.5Z"/><rect class="cls-12" x="27" y="26.5" width="3" height="2"/><path class="cls-13" d="M37,34l-2.21-4a1,1,0,0,0-.88-.52H33v6h4Z"/><g class="cls-14"><path class="cls-15" d="M39,36.5a1,1,0,0,1-1,1H11v-2H38A1,1,0,0,1,39,36.5Z"/><path class="cls-15" d="M33.62,40.51a1.13,1.13,0,0,1-2.24,0l-.38-3h3Z"/></g><path class="cls-16" d="M86,65.5H68v-11a2,2,0,0,1,2-2H84a2,2,0,0,1,2,2Z"/><path class="cls-17" d="M84,52.5H70a2,2,0,0,0-2,2v4a2,2,0,0,1,2-2H84a2,2,0,0,1,2,2v-4A2,2,0,0,0,84,52.5Z"/><path class="cls-18" d="M86,65.5H68v-11a2,2,0,0,1,2-2H84a2,2,0,0,1,2,2Z"/><path class="cls-19" d="M68,70.5h4a0,0,0,0,1,0,0v1a1,1,0,0,1-1,1H69a1,1,0,0,1-1-1v-1A0,0,0,0,1,68,70.5Z"/><path class="cls-19" d="M82,70.5h4a0,0,0,0,1,0,0v1a1,1,0,0,1-1,1H83a1,1,0,0,1-1-1v-1A0,0,0,0,1,82,70.5Z"/><path class="cls-16" d="M86,70.5H68v-5a2,2,0,0,1,2-2H84a2,2,0,0,1,2,2Z"/><path class="cls-18" d="M86,70.5H68v-5a2,2,0,0,1,2-2H84a2,2,0,0,1,2,2Z"/><path class="cls-16" d="M65,70.5h3v-12H66a2,2,0,0,0-2,2v9A1,1,0,0,0,65,70.5Z"/><path class="cls-17" d="M66,58.5a2,2,0,0,0-2,2v3a2,2,0,0,1,2-2h2v-3Z"/><path class="cls-18" d="M65,70.5h3v-12H66a2,2,0,0,0-2,2v9A1,1,0,0,0,65,70.5Z"/><path class="cls-16" d="M89,70.5H86v-12h2a2,2,0,0,1,2,2v9A1,1,0,0,1,89,70.5Z"/><path class="cls-17" d="M88,58.5a2,2,0,0,1,2,2v3a2,2,0,0,0-2-2H86v-3Z"/><path class="cls-18" d="M89,70.5H86v-12h2a2,2,0,0,1,2,2v9A1,1,0,0,1,89,70.5Z"/><rect class="cls-20" x="54.99" y="75.78" width="2.3" height="5.75"/><rect class="cls-21" x="54.99" y="75.78" width="2.3" height="2.88"/><rect class="cls-18" x="54.99" y="75.78" width="2.3" height="5.75"/><path class="cls-20" d="M69.36,71.18A1.15,1.15,0,0,0,70.51,70V58.53h2.3V70a3.45,3.45,0,0,1-3.45,3.45h-2.3v-2.3Z"/><rect class="cls-22" x="70.51" y="58.53" width="2.3" height="8.05"/><path class="cls-18" d="M69.36,71.18A1.15,1.15,0,0,0,70.51,70V58.53h2.3V70a3.45,3.45,0,0,1-3.45,3.45h-2.3v-2.3Z"/><path class="cls-23" d="M68.21,56.23h3.6a1,1,0,0,1,1,1v1.3a0,0,0,0,1,0,0h-4.6a0,0,0,0,1,0,0v-2.3A0,0,0,0,1,68.21,56.23Z"/><path class="cls-20" d="M42.91,71.18A1.16,1.16,0,0,1,41.76,70V58.53h-2.3V70a3.46,3.46,0,0,0,3.45,3.45h2.3v-2.3Z"/><rect class="cls-22" x="39.46" y="58.53" width="2.3" height="8.05"/><path class="cls-18" d="M42.91,71.18A1.16,1.16,0,0,1,41.76,70V58.53h-2.3V70a3.46,3.46,0,0,0,3.45,3.45h2.3v-2.3Z"/><path class="cls-23" d="M39.46,56.23h4.6a0,0,0,0,1,0,0v1.3a1,1,0,0,1-1,1h-3.6a0,0,0,0,1,0,0v-2.3A0,0,0,0,1,39.46,56.23Z" transform="translate(83.52 114.75) rotate(180)"/><path class="cls-24" d="M65.91,74.63H46.36a1.16,1.16,0,0,1-1.15-1.15V72.33H67.06v1.15A1.15,1.15,0,0,1,65.91,74.63Z"/><rect class="cls-23" x="46.36" y="33.8" width="19.55" height="38.52"/><rect class="cls-25" x="44.06" y="33.8" width="24.15" height="9.2" rx="2.3" ry="2.3"/><path class="cls-26" d="M65.91,33.8H46.36a2.3,2.3,0,0,0-2.3,2.3V39a2.3,2.3,0,0,1,2.3-2.3H65.91a2.3,2.3,0,0,1,2.3,2.3V36.1A2.3,2.3,0,0,0,65.91,33.8Z"/><rect class="cls-18" x="44.06" y="33.8" width="24.15" height="9.2" rx="2.3" ry="2.3"/><rect class="cls-27" x="44.06" y="47.03" width="24.15" height="23" rx="2.3" ry="2.3"/><path class="cls-27" d="M65.91,68.88H46.36a2.3,2.3,0,0,0-2.3,2.3h0a1.16,1.16,0,0,0,1.15,1.15H67.06a1.15,1.15,0,0,0,1.15-1.15h0A2.3,2.3,0,0,0,65.91,68.88Z"/><path class="cls-28" d="M62.46,74.63c0,1.27-2.83,2.3-6.32,2.3s-6.33-1-6.33-2.3Z"/><path class="cls-24" d="M63,83.25c0-.32-3.73-.57-6.9-.57s-6.9.25-6.9.57h-4c0-1.59,4.89-2.87,10.93-2.87s10.92,1.28,10.92,2.87Z"/><circle class="cls-29" cx="46.36" cy="83.83" r="2.3"/><circle class="cls-29" cx="65.91" cy="83.83" r="2.3"/><ellipse class="cls-30" cx="51.54" cy="87.28" rx="26.45" ry="1.72"/><path class="cls-31" d="M23.35,60.7c0,2.32-1,4.2-2.33,4.2S18.68,63,18.68,60.7a5.94,5.94,0,0,1,2-3.88.49.49,0,0,1,.69,0A5.94,5.94,0,0,1,23.35,60.7Z"/><path class="cls-31" d="M21,64.9l-2.87-6.69a.51.51,0,0,0-.46-.3.49.49,0,0,0-.46.32l-.45,1.1a3.61,3.61,0,0,0,2,4.68Z"/><path class="cls-31" d="M21,64.9l2.86-6.69a.52.52,0,0,1,.47-.3.51.51,0,0,1,.46.32l.44,1.1a3.6,3.6,0,0,1-2,4.68Z"/><path class="cls-32" d="M16.53,64.5a1,1,0,0,0-.72.31,1.09,1.09,0,0,0-.28.73c.2,5.63,2,7,2,7h7s1.78-1.33,2-7a1,1,0,0,0-.28-.73,1,1,0,0,0-.72-.31Z"/><path class="cls-33" d="M21,70.5a6.64,6.64,0,0,1-5.31-2.79c.5,3.81,1.81,4.79,1.81,4.79h7s1.3-1,1.8-4.79A6.64,6.64,0,0,1,21,70.5Z"/><path class="cls-18" d="M16.53,64.5a1,1,0,0,0-.72.31,1.09,1.09,0,0,0-.28.73c.2,5.63,2,7,2,7h7s1.78-1.33,2-7a1,1,0,0,0-.28-.73,1,1,0,0,0-.72-.31Z"/><path class="cls-34" d="M60.16,68.88h-8a3.46,3.46,0,0,1-3.45-3.45v-.58h15v.58A3.45,3.45,0,0,1,60.16,68.88Z"/><path class="cls-35" d="M63.61,56.23v8.62h-15V56.23h-4V54.5a11.5,11.5,0,0,1,23,0v1.73Z"/><path class="cls-36" d="M56.14,43a11.5,11.5,0,0,0-11.5,11.5v1.73h.14a11.48,11.48,0,0,1,22.71,0h.15V54.5A11.5,11.5,0,0,0,56.14,43Z"/><path class="cls-18" d="M63.61,56.23v8.62h-15V56.23h-4V54.5a11.5,11.5,0,0,1,23,0v1.73Z"/><line class="cls-18" x1="48.66" y1="52.2" x2="48.66" y2="56.23"/><line class="cls-18" x1="63.61" y1="52.2" x2="63.61" y2="56.23"/><path class="cls-37" d="M59.62,43.54a11.52,11.52,0,0,0-7,0S53.26,47,56.14,47,59.62,43.54,59.62,43.54Z"/><path class="cls-37" d="M48.66,59.68H47.51a2.3,2.3,0,0,1-2.3-2.3V56.23h3.45Z"/><path class="cls-37" d="M64.76,59.68H63.61V56.23h3.45v1.15A2.3,2.3,0,0,1,64.76,59.68Z"/><path class="cls-34" d="M66.47,68.64A2.88,2.88,0,0,0,60.76,68L59.21,84.55l5.71.67Z"/><path class="cls-15" d="M64.45,86.13a1.14,1.14,0,0,0,1-1.67,3.44,3.44,0,0,0-3-1.78h-.57a3.45,3.45,0,0,0-3,1.78,1.14,1.14,0,0,0,1,1.67Z"/><path class="cls-34" d="M45.81,68.64A2.88,2.88,0,0,1,51.52,68l1.55,16.59-5.71.67Z"/><path class="cls-15" d="M47.83,86.13a1.15,1.15,0,0,1-1-1.67,3.45,3.45,0,0,1,3-1.78h.58a3.45,3.45,0,0,1,3,1.78,1.15,1.15,0,0,1-1,1.67Z"/><path class="cls-37" d="M64.19,33.8A1.42,1.42,0,0,0,63,32.42V31.5a6.9,6.9,0,0,0-13.8,0v.92a1.41,1.41,0,0,0,.14,2.79,6.9,6.9,0,0,0,13.51,0A1.42,1.42,0,0,0,64.19,33.8Z"/><path class="cls-18" d="M54.41,36.73a3.1,3.1,0,0,0,3.45,0"/><circle class="cls-38" cx="52.69" cy="33.23" r="2.3"/><path class="cls-39" d="M51.06,34.85a2.3,2.3,0,0,1,3.25-3.25Z"/><circle class="cls-38" cx="59.59" cy="33.23" r="2.3"/><path class="cls-39" d="M58,34.85a2.3,2.3,0,0,1,3.25-3.25Z"/><path class="cls-18" d="M55,33.23a1.15,1.15,0,0,1,2.3,0"/><circle class="cls-18" cx="52.69" cy="33.23" r="2.3"/><circle class="cls-18" cx="59.59" cy="33.23" r="2.3"/><path class="cls-40" d="M60,20.61a.27.27,0,0,0-.24.08.29.29,0,0,0-.07.25c.16.91-1,1.36-3.58,1.36-5.75,0-5.18,4.6-5.18,4.6-2.87,0-1.72,5.18-1.72,5.18h.27a1.88,1.88,0,0,0,1.62-1.86,1.37,1.37,0,0,1,1.6-1.13,17.22,17.22,0,0,0,6.81,0,1.37,1.37,0,0,1,1.6,1.13,1.9,1.9,0,0,0,1.63,1.86H63C65.22,24.39,62.75,20.94,60,20.61Z"/><path class="cls-41" d="M60,20.61a.27.27,0,0,0-.24.08.29.29,0,0,0-.07.25c.16.91-1,1.36-3.58,1.36-4.32,0-5.07,2.59-5.18,3.88v.72c.11-1.29,2.3-2.3,5.18-2.3s7.35-.15,7.68,3.39C64.23,23.15,62.21,20.88,60,20.61Z"/><path class="cls-18" d="M60,20.61a.27.27,0,0,0-.24.08.29.29,0,0,0-.07.25c.16.91-1,1.36-3.58,1.36-5.75,0-5.18,4.6-5.18,4.6-2.87,0-1.72,5.18-1.72,5.18h.27a1.88,1.88,0,0,0,1.62-1.86,1.37,1.37,0,0,1,1.6-1.13,17.22,17.22,0,0,0,6.81,0,1.37,1.37,0,0,1,1.6,1.13,1.9,1.9,0,0,0,1.63,1.86H63C65.22,24.39,62.75,20.94,60,20.61Z"/><path class="cls-15" d="M76.26,63.13H26.81A1.16,1.16,0,0,1,25.66,62h0a1.15,1.15,0,0,1,1.15-1.15H76.26A1.14,1.14,0,0,1,77.41,62h0A1.15,1.15,0,0,1,76.26,63.13Z"/><path class="cls-28" d="M30.26,65.43H28a1.16,1.16,0,0,1-1.15-1.15V63.13h4.6v1.15A1.15,1.15,0,0,1,30.26,65.43Z"/><path class="cls-20" d="M30.26,85A1.15,1.15,0,1,1,28,85V65.43h2.3Z"/><rect class="cls-22" x="27.96" y="65.43" width="2.3" height="4.02"/><path class="cls-18" d="M30.26,85A1.15,1.15,0,1,1,28,85V65.43h2.3Z"/><path class="cls-29" d="M30.26,82.68H28V85a1.15,1.15,0,1,0,2.3,0Z"/><path class="cls-20" d="M75.11,85a1.15,1.15,0,0,1-2.3,0V65.43h2.3Z"/><rect class="cls-22" x="72.81" y="65.43" width="2.3" height="4.02"/><path class="cls-18" d="M75.11,85a1.15,1.15,0,0,1-2.3,0V65.43h2.3Z"/><path class="cls-29" d="M75.11,82.68h-2.3V85a1.15,1.15,0,0,0,2.3,0Z"/><path class="cls-28" d="M75.11,65.43h-2.3a1.16,1.16,0,0,1-1.15-1.15V63.13h4.6v1.15A1.15,1.15,0,0,1,75.11,65.43Z"/><path class="cls-37" d="M52.11,59.1a2.88,2.88,0,0,0-3.17-2.86,3,3,0,0,0-2.58,3v.41a1.16,1.16,0,0,0,1.15,1.15H51a1.15,1.15,0,0,0,1.15-1.15Z"/><rect class="cls-42" x="24.51" y="38.98" width="26.45" height="18.4" rx="2.3" ry="2.3"/><path class="cls-3" d="M48.66,39H26.81a2.3,2.3,0,0,0-2.3,2.3v2.87a2.3,2.3,0,0,1,2.3-2.3H48.66a2.3,2.3,0,0,1,2.3,2.3V41.28A2.3,2.3,0,0,0,48.66,39Z"/><rect class="cls-18" x="24.51" y="38.98" width="26.45" height="18.4" rx="2.3" ry="2.3"/><line class="cls-18" x1="27.96" y1="41.28" x2="47.51" y2="41.28"/><path class="cls-43" d="M41.76,60.83h-8l1-11.69A2.29,2.29,0,0,1,37,47H38.5a2.3,2.3,0,0,1,2.29,2.11Z"/><line class="cls-18" x1="27.96" y1="52.78" x2="27.96" y2="53.93"/><line class="cls-18" x1="30.26" y1="52.78" x2="30.26" y2="53.93"/><line class="cls-18" x1="32.56" y1="52.78" x2="32.56" y2="53.93"/><path class="cls-44" d="M74,60.83H57.86a1.16,1.16,0,0,1-1.15-1.15V58.53h18.4v1.15A1.15,1.15,0,0,1,74,60.83Z"/><rect class="cls-42" x="56.71" y="47.03" width="18.4" height="11.5" rx="1.15" ry="1.15"/><path class="cls-2" d="M74,47H57.86a1.15,1.15,0,0,0-1.15,1.15v2.3a1.15,1.15,0,0,1,1.15-1.15H74a1.14,1.14,0,0,1,1.15,1.15v-2.3A1.14,1.14,0,0,0,74,47Z"/><rect class="cls-18" x="56.71" y="47.03" width="18.4" height="11.5" rx="1.15" ry="1.15"/><circle class="cls-45" cx="65.91" cy="53.35" r="1.73"/><polyline class="cls-18" points="67.06 49.33 65.91 50.48 65.91 51.63"/></g></svg>