<svg id="Multicolor" xmlns="http://www.w3.org/2000/svg" viewBox="0 0 100 112"><defs><style>.cls-1,.cls-5{fill:#e8f4fa;}.cls-2{fill:#fff;}.cls-11,.cls-3,.cls-7,.cls-9{fill:none;}.cls-3{stroke:#4f4a45;}.cls-11,.cls-12,.cls-13,.cls-14,.cls-15,.cls-16,.cls-17,.cls-19,.cls-21,.cls-22,.cls-3,.cls-5,.cls-7,.cls-8{stroke-linecap:round;stroke-linejoin:round;}.cls-4{fill:#c0dceb;}.cls-12,.cls-13,.cls-14,.cls-15,.cls-16,.cls-17,.cls-19,.cls-21,.cls-22,.cls-5,.cls-7,.cls-8,.cls-9{stroke:#191816;}.cls-6{fill:#adc4d9;}.cls-8{fill:#f0f0f0;}.cls-9{stroke-miterlimit:10;}.cls-10{fill:#525252;}.cls-11{stroke:#656769;}.cls-12{fill:#00dfeb;}.cls-13{fill:#ffe500;}.cls-14{fill:#ff6242;}.cls-15{fill:#ff8a14;}.cls-16{fill:#00dba8;}.cls-17{fill:#6dd627;}.cls-18,.cls-19{fill:#656769;}.cls-20{fill:#191816;opacity:0.15;}.cls-21{fill:#fff5e3;}.cls-22{fill:#00b8f0;}</style></defs><title>20- computer-programming-bachelor</title><g id="Background"><path class="cls-1" d="M90.34,56A40,40,0,1,0,13.9,72.5H86.77A39.7,39.7,0,0,0,90.34,56Z"/><path class="cls-2" d="M13.9,72.5a40,40,0,0,0,72.87,0Z"/><line class="cls-3" x1="11.34" y1="72.5" x2="89.34" y2="72.5"/><line class="cls-3" x1="6.84" y1="72.5" x2="9.34" y2="72.5"/><line class="cls-3" x1="91.34" y1="72.5" x2="93.84" y2="72.5"/></g><g id="Scene"><rect class="cls-4" x="36.36" y="64.8" width="7.7" height="4.4"/><path class="cls-5" d="M49.56,72.5a3.3,3.3,0,0,0-3.3-3.3H34.16a3.3,3.3,0,0,0-3.3,3.3Z"/><rect class="cls-6" x="36.36" y="64.8" width="7.7" height="1.65"/><rect class="cls-7" x="36.36" y="64.8" width="7.7" height="4.4"/><path class="cls-8" d="M60.56,64.8H19.86a3.3,3.3,0,0,1-3.3-3.3V59.3h47.3v2.2A3.3,3.3,0,0,1,60.56,64.8Z"/><circle class="cls-9" cx="40.21" cy="62.05" r="0.55"/><path class="cls-10" d="M21,30.7h38.5a4.4,4.4,0,0,1,4.4,4.4V59.3H16.56V35.1A4.4,4.4,0,0,1,21,30.7Z"/><path class="cls-7" d="M21,30.7h38.5a4.4,4.4,0,0,1,4.4,4.4V59.3H16.56V35.1A4.4,4.4,0,0,1,21,30.7Z"/><line class="cls-11" x1="20.96" y1="32.9" x2="20.96" y2="41.7"/><line class="cls-11" x1="20.96" y1="43.9" x2="20.96" y2="57.1"/><path class="cls-12" d="M48.46,36.2a1.1,1.1,0,0,0,0-2.2H24.26a1.1,1.1,0,0,0,0,2.2Z"/><path class="cls-13" d="M39.66,47.2a1.1,1.1,0,0,0,0-2.2H24.26a1.1,1.1,0,0,0,0,2.2Z"/><path class="cls-14" d="M34.16,56a1.1,1.1,0,0,0,0-2.2h-9.9a1.1,1.1,0,0,0,0,2.2Z"/><path class="cls-15" d="M44.06,51.6a1.1,1.1,0,0,0,0-2.2H24.26a1.1,1.1,0,1,0,0,2.2Z"/><path class="cls-16" d="M29.76,40.6a1.1,1.1,0,0,0,0-2.2h-5.5a1.1,1.1,0,1,0,0,2.2Z"/><path class="cls-17" d="M44.06,40.6a1.1,1.1,0,0,0,0-2.2h-9.9a1.1,1.1,0,1,0,0,2.2Z"/><path class="cls-18" d="M78.71,49.4H60l-1,8.68a1.1,1.1,0,0,0,1.09,1.22H78.58a1.1,1.1,0,0,0,1.1-1.22Z"/><polygon class="cls-10" points="79.02 52.15 78.71 49.4 60.01 49.4 59.71 52.15 79.02 52.15"/><path class="cls-7" d="M78.71,49.4H60l-1,8.68a1.1,1.1,0,0,0,1.09,1.22H78.58a1.1,1.1,0,0,0,1.1-1.22Z"/><path class="cls-19" d="M87.51,49.4a1.1,1.1,0,1,0,0-2.2H51.21a1.1,1.1,0,0,0,0,2.2Z"/><path class="cls-19" d="M72.11,46.65c0-.91-1.23-1.65-2.75-1.65s-2.75.74-2.75,1.65v.55h5.5Z"/><circle class="cls-14" cx="83.66" cy="53.25" r="1.65"/><path class="cls-14" d="M85.31,56.55a1.65,1.65,0,0,0-3.3,0V60.4l3.3,2.2Z"/><line class="cls-7" x1="83.66" y1="51.6" x2="83.66" y2="46.1"/><path class="cls-20" d="M58.91,78.55c-13.06,0-23.65.74-23.65,1.65,0,.32,1.34.62,3.61.87-2.85.3-4.71.79-4.71,1.33,0,.91,5.18,1.65,11.55,1.65s11.55-.74,11.55-1.65c0-.2-.25-.38-.69-.56h2.34c13.07,0,23.65-.74,23.65-1.65S72,78.55,58.91,78.55Z"/><path class="cls-17" d="M50.25,71.4a2.75,2.75,0,0,0,0,5.5H71.7a1.1,1.1,0,0,1,0,2.2H50.25a4.95,4.95,0,0,1,0-9.9H71.7a1.1,1.1,0,0,1,0,2.2Z"/><path class="cls-21" d="M71.7,76.9V71.4H50.25a2.75,2.75,0,0,0,0,5.5Z"/><line class="cls-7" x1="71.7" y1="73.6" x2="64" y2="73.6"/><line class="cls-7" x1="61.8" y1="73.6" x2="59.6" y2="73.6"/><path class="cls-13" d="M38.56,74.7a3.3,3.3,0,0,0,0,6.6H54a1.1,1.1,0,0,0,1.1-1.1V79.1H38.56a1.1,1.1,0,0,1,0-2.2h16.5V75.8A1.1,1.1,0,0,0,54,74.7Z"/><path class="cls-21" d="M54,79.1V76.9H38.56a1.1,1.1,0,0,0,0,2.2Z"/><path class="cls-14" d="M56.3,61.5a2.75,2.75,0,0,0,0,5.5H75.55a1.1,1.1,0,1,1,0,2.2H56.3a5,5,0,1,1,0-9.9H75.55a1.1,1.1,0,1,1,0,2.2Z"/><path class="cls-21" d="M75.55,67V61.5H56.3a2.75,2.75,0,0,0,0,5.5Z"/><line class="cls-7" x1="75.55" y1="63.7" x2="67.85" y2="63.7"/><line class="cls-7" x1="65.65" y1="63.7" x2="63.45" y2="63.7"/><path class="cls-22" d="M40.76,68.1a3.3,3.3,0,1,0,0,6.6h15.4a1.1,1.1,0,0,0,1.1-1.1V72.5H40.76a1.1,1.1,0,0,1,0-2.2h16.5V69.2a1.1,1.1,0,0,0-1.1-1.1Z"/><path class="cls-21" d="M56.16,72.5V70.3H40.76a1.1,1.1,0,0,0,0,2.2Z"/></g></svg>